<svg width="308" height="52" viewBox="0 0 308 52" fill="none" xmlns="http://www.w3.org/2000/svg">
<g clip-path="url(#clip0)">
<path d="M72.3351 14.9846H72.2685C69.2155 15.0023 66.735 17.4916 66.735 20.5489C66.735 23.6194 69.2377 26.0377 72.304 26.0377H73.1738H80.1095H83.1226H87.2272H92.1972C93.2977 26.0377 94.194 26.9296 94.194 28.0345C94.194 29.1393 93.3021 30.0312 92.1972 30.0312H87.4402H83.2424H81.2588H73.44C73.2758 30.0445 72.6413 29.9957 72.2508 29.9957C66.9791 29.9957 62.728 25.8203 62.728 20.5489C62.728 15.4372 66.7661 11.2617 71.8203 11.0132V10.991H72.2552C72.2685 10.991 72.2774 10.991 72.2907 10.991C72.304 10.991 72.3129 10.991 72.3262 10.991H103.109C98.8711 4.38399 91.465 0 83.0249 0C69.8412 0 59.1514 10.6849 59.1514 23.8723C59.1514 27.2225 59.8436 30.4084 61.0905 33.3015H81.2677V33.3281H92.5255C95.5963 33.3281 98.0901 30.8299 98.0901 27.7638C98.0901 24.6977 95.5918 22.1995 92.5255 22.1995H92.0907H84.7689H81.7114H77.6201H72.1931V22.1773C71.1591 22.1019 70.3382 21.2499 70.3382 20.1939C70.3382 19.1378 71.1591 18.2859 72.1931 18.2104V18.2016H72.2729C72.2951 18.2016 72.3129 18.1971 72.3306 18.1971C72.3484 18.1971 72.3706 18.2016 72.3883 18.2016H77.3405H81.5561H92.0862V18.2237C92.2327 18.2193 92.3747 18.2016 92.5211 18.2016C97.7928 18.2016 102.079 22.4879 102.079 27.7594C102.079 33.0308 97.7928 37.3172 92.5211 37.3172C92.317 37.3172 92.1173 37.2994 91.9176 37.2861V37.2906H63.2782C67.5737 43.5959 74.8112 47.7402 83.0205 47.7402C96.2042 47.7402 106.894 37.0509 106.894 23.8679C106.894 20.7263 106.282 17.7312 105.177 14.9846H80.0563H72.3351Z" fill="#E76060"/>
<path d="M72.7789 10.991C72.7656 10.991 72.7567 10.991 72.7434 10.991C72.7301 10.991 72.7212 10.991 72.7079 10.991H72.273V11.0132C67.2188 11.2617 63.1807 15.4371 63.1807 20.5488C63.1807 25.8203 67.4318 29.9957 72.7035 29.9957C73.094 29.9957 73.7241 30.0445 73.8927 30.0312H81.7115H83.6951H87.8929H92.6499C93.7504 30.0312 94.6467 29.1393 94.6467 28.0345C94.6467 26.9296 93.7548 26.0377 92.6499 26.0377H87.6799H83.5753H80.5622H73.6265H72.7567C69.686 26.0377 67.1877 23.615 67.1877 20.5488C67.1877 17.4916 69.6682 15.0023 72.7212 14.9845H72.7878H80.5134H105.634C105.07 13.5824 104.378 12.2468 103.57 10.991H72.7789Z" fill="white"/>
<path d="M92.3656 37.5834C92.5653 37.5967 92.765 37.6145 92.9691 37.6145C98.2408 37.6145 102.527 33.3281 102.527 28.0567C102.527 22.7852 98.2408 18.4989 92.9691 18.4989C92.8227 18.4989 92.6763 18.5122 92.5343 18.521V18.4989H82.0042H77.7886H72.8364C72.8142 18.4989 72.7964 18.4944 72.7787 18.4944C72.7609 18.4944 72.7387 18.4989 72.721 18.4989H72.6411V18.5077C71.6072 18.5832 70.7863 19.4351 70.7863 20.4912C70.7863 21.5472 71.6072 22.3992 72.6411 22.4746V22.4968H78.0681H82.1595H85.2169H92.5387H92.9736C96.0443 22.4968 98.5382 24.995 98.5382 28.0611C98.5382 31.1272 96.0399 33.6254 92.9736 33.6254H81.7157V33.5988H61.5386C62.1421 35.0054 62.8787 36.341 63.7307 37.5923L92.3656 37.5834Z" fill="white"/>
<path d="M113.528 35.8396V13.507H116.692V33.1196H131.527V35.8396H113.528Z" fill="black"/>
<path d="M144.538 36.4386C136.248 36.4386 130.87 32.201 130.87 24.924C130.87 16.8881 137.291 12.9656 144.347 12.9656C150.927 12.9656 158.014 16.5731 158.014 24.9861C158.014 31.2515 153.333 36.4386 144.538 36.4386ZM144.347 15.6901C138.937 15.6901 134.034 18.4722 134.034 24.7997C134.034 30.3374 138.019 33.6875 144.6 33.6875C152.254 33.6875 154.819 29.0994 154.819 24.671C154.819 20.6243 152.192 15.6901 144.347 15.6901Z" fill="black"/>
<path d="M183.632 35.8396V32.769C182.083 34.4773 178.888 36.3454 173.887 36.3454C165.948 36.3454 161.107 30.8743 161.107 24.6089C161.107 18.1261 166.232 12.97 174.455 12.97C178.914 12.97 184.133 14.6784 186.254 18.8538L183.152 19.8034C181.825 17.8421 179.167 15.6901 174.672 15.6901C169.201 15.6901 164.484 18.7917 164.484 24.4847C164.484 30.5592 169.294 33.6919 174.575 33.6919C177.676 33.6919 181.155 32.3652 182.833 29.6097C183.432 28.598 183.561 27.8392 183.72 26.7299H173.882V24.072H186.378V35.8396H183.632Z" fill="black"/>
<path d="M191.694 35.8396V13.507H194.92V35.8396H191.694Z" fill="black"/>
<path d="M201.643 30.1155C202.495 31.0341 203.161 31.7618 205.184 32.5827C207.745 33.6254 210.532 33.6565 211.605 33.6565C212.679 33.6565 215.59 33.6565 217.583 32.1389C218.909 31.1272 219.1 29.7339 219.1 29.1349C219.1 26.2862 215.936 25.8114 213.345 25.594L209.928 25.279C205.562 24.8663 203.569 24.711 201.923 23.189C200.405 21.7957 200.343 20.2161 200.343 19.4573C200.343 16.3246 202.495 14.9003 203.445 14.3944C204.772 13.6667 207.208 12.939 210.816 12.939C217.552 12.939 220.56 15.4061 221.98 17.4295L219.069 18.6009C217.077 16.7328 214.831 15.5658 210.842 15.5658C207.519 15.5658 203.503 16.2935 203.503 19.2976C203.503 21.7025 205.779 22.0797 208.024 22.3016L214.951 22.9672C219.509 23.4109 222.229 25.4343 222.229 29.1039C222.229 32.4895 219.983 36.3809 211.281 36.3809C206.218 36.3809 200.938 35.0187 198.692 31.318L201.643 30.1155Z" fill="black"/>
<path d="M235.221 16.1649V35.8396H232.057V16.1649H222.947V13.507H244.362V16.1649H235.221Z" fill="black"/>
<path d="M247.349 35.8396V13.507H250.575V35.8396H247.349Z" fill="black"/>
<path d="M281.815 29.7339C279.188 35.174 273.525 36.4075 268.844 36.4075C261.251 36.4075 255.305 32.485 255.305 24.5157C255.305 17.5582 260.337 12.8414 268.782 12.8414C274.098 12.8414 278.779 14.6429 281.34 19.3242L277.954 20.0519C276.215 16.7949 272.514 15.6235 268.906 15.6235C263.972 15.6235 258.655 17.8066 258.655 24.4802C258.655 30.7456 263.306 33.621 269.283 33.621C272.349 33.621 276.432 32.8622 278.455 29.0329L281.815 29.7339Z" fill="black"/>
<path d="M287.033 30.1155C287.885 31.0341 288.551 31.7618 290.574 32.5827C293.134 33.6254 295.921 33.6565 296.995 33.6565C298.069 33.6565 300.98 33.6565 302.972 32.1389C304.299 31.1272 304.49 29.7339 304.49 29.1349C304.49 26.2862 301.326 25.8114 298.735 25.594L295.318 25.279C290.951 24.8663 288.959 24.711 287.312 23.189C285.795 21.7957 285.733 20.2161 285.733 19.4573C285.733 16.3246 287.885 14.9003 288.835 14.3944C290.161 13.6667 292.598 12.939 296.205 12.939C302.941 12.939 305.95 15.4061 307.37 17.4295L304.459 18.6009C302.466 16.7328 300.221 15.5658 296.232 15.5658C292.908 15.5658 288.892 16.2935 288.892 19.2976C288.892 21.7025 291.169 22.0797 293.414 22.3016L300.341 22.9672C304.898 23.4109 307.618 25.4343 307.618 29.1039C307.618 32.4895 305.373 36.3809 296.671 36.3809C291.608 36.3809 286.327 35.0187 284.082 31.318L287.033 30.1155Z" fill="black"/>
<path d="M2.94204 30.1155C3.79403 31.0341 4.45965 31.7618 6.48314 32.5827C9.04355 33.6254 11.8303 33.6565 12.9041 33.6565C13.978 33.6565 16.889 33.6565 18.8814 32.1389C20.2082 31.1272 20.399 29.7339 20.399 29.1349C20.399 26.2862 17.2351 25.8114 14.6436 25.594L11.2268 25.279C6.86032 24.8663 4.8679 24.711 3.2216 23.189C1.70399 21.7957 1.64186 20.2161 1.64186 19.4573C1.64186 16.3246 3.79403 14.9003 4.74365 14.3944C6.07045 13.6667 8.50662 12.939 12.1143 12.939C18.8503 12.939 21.859 15.4061 23.2834 17.4295L20.3724 18.6009C18.38 16.7328 16.1346 15.5658 12.1453 15.5658C8.82168 15.5658 4.80577 16.2935 4.80577 19.2976C4.80577 21.7025 7.08219 22.0797 9.32755 22.3016L16.2544 22.9672C20.8117 23.4109 23.5319 25.4343 23.5319 29.1039C23.5319 32.4895 21.2865 36.3809 12.5847 36.3809C7.53038 36.3765 2.24536 35.0187 0 31.3136L2.94204 30.1155Z" fill="black"/>
<path d="M39.7196 36.4386C31.4305 36.4386 26.0522 32.201 26.0522 24.924C26.0522 16.8881 32.4733 12.9656 39.5288 12.9656C46.1096 12.9656 53.1962 16.5731 53.1962 24.9861C53.1962 31.2515 48.5147 36.4386 39.7196 36.4386ZM39.5288 15.6901C34.1196 15.6901 29.2162 18.4722 29.2162 24.7997C29.2162 30.3374 33.201 33.6875 39.7818 33.6875C47.4364 33.6875 50.0012 29.0994 50.0012 24.671C50.0012 20.6243 47.3743 15.6901 39.5288 15.6901Z" fill="black"/>
<path d="M114.189 43.4938V46.3115H116.625C118.072 46.3115 118.414 45.566 118.684 44.7407C118.809 44.3635 118.915 43.9242 119.159 43.4982H120.206C119.878 43.973 119.723 44.5188 119.567 44.9758C119.332 45.6769 119.07 46.3824 118.187 46.6576C119.43 46.8927 119.674 47.9177 119.896 48.8629C120.011 49.3465 120.149 49.8346 120.499 50.3582H119.452C119.044 49.7947 118.986 49.0847 118.773 48.4635C118.529 47.7447 118.121 47.1057 116.754 47.1057H114.189V50.3582H113.2V43.4938H114.189Z" fill="black"/>
<path d="M124.138 50.4958C122.341 50.4958 121.032 49.5817 121.032 48.0775C121.032 46.134 122.838 45.495 124.111 45.495C125.607 45.495 127.218 46.1561 127.218 48.002C127.218 49.3687 126.099 50.4958 124.138 50.4958ZM124.089 46.2538C123.029 46.2538 121.964 46.8572 121.964 48.0198C121.964 49.0093 122.847 49.7281 124.187 49.7281C125.11 49.7281 126.295 49.2445 126.295 47.9798C126.295 46.6797 125.043 46.2538 124.089 46.2538Z" fill="black"/>
<path d="M133.727 50.3493V46.4845L131.921 50.3493H131.3L129.494 46.5022V50.3493H128.651V45.6104H129.924L131.624 49.3953L133.306 45.6104H134.579V50.3493H133.727Z" fill="black"/>
<path d="M141.053 50.3493V46.3114H137.317V50.3493H136.385V45.6104H141.99V50.3493H141.053Z" fill="black"/>
<path d="M148.029 50.3493V46.3114H145.118V47.0702C145.118 49.6216 144.719 50.3538 143.303 50.3538H143.042V49.6527H143.303C144.111 49.6349 144.275 49.1956 144.275 46.835V45.6104H148.966V50.3493H148.029Z" fill="black"/>
<path d="M151.153 48.0864C151.193 48.8939 151.872 49.7548 153.23 49.7548C153.958 49.7548 154.725 49.4353 155.036 48.7253L155.919 48.9694C155.356 50.194 154.064 50.4958 153.101 50.4958C151.566 50.4958 150.199 49.6128 150.199 47.971C150.199 46.0674 151.881 45.4551 153.084 45.4551C155.218 45.4551 156.017 47.0747 156.017 47.9488V48.0864H151.153ZM154.978 47.3986C154.734 46.7108 154.202 46.1473 153.141 46.1473C152.285 46.1473 151.491 46.5555 151.18 47.3986H154.978Z" fill="black"/>
<path d="M158.311 47.4562H160.485C161.719 47.4562 161.302 46.3203 161.865 45.6104H162.864C162.127 46.5333 162.544 47.4341 161.581 47.758C162.775 47.9443 162.327 49.3998 163.037 50.3493H162.047C161.484 49.6704 162.016 48.1529 160.445 48.1529H158.311V50.3493H157.379V45.6104H158.311V47.4562Z" fill="black"/>
<path d="M169.901 49.0891C169.453 49.9544 168.486 50.5179 167.017 50.5179C165.162 50.5179 163.889 49.6749 163.889 47.9532C163.889 46.3514 165.269 45.4772 167.044 45.4772C168.521 45.4772 169.444 46.0984 169.848 46.9149L168.965 47.1678C168.637 46.5777 167.967 46.2049 167.044 46.2049C165.925 46.2049 164.869 46.8084 164.869 48.0286C164.869 49.3021 166.094 49.7769 167.053 49.7769C168.002 49.7769 168.712 49.3864 169.014 48.854L169.901 49.0891Z" fill="black"/>
<path d="M175.75 50.3493V48.1529H172.014V50.3493H171.082V45.6104H172.014V47.4562H175.75V45.6104H176.682V50.3493H175.75Z" fill="black"/>
<path d="M178.377 45.6104H179.309V47.3764H181.319C182.629 47.3764 183.312 47.6692 183.312 48.8717C183.312 49.9189 182.691 50.3493 181.759 50.3493H178.382V45.6104H178.377ZM181.182 49.6527C182.087 49.6527 182.376 49.3909 182.376 48.8584C182.376 48.3348 181.976 48.0819 181.102 48.0819H179.305V49.6527H181.182ZM184.057 50.3493V45.6104H184.989V50.3493H184.057Z" fill="black"/>
<path d="M187.177 48.0864C187.217 48.8939 187.896 49.7548 189.253 49.7548C189.981 49.7548 190.749 49.4353 191.059 48.7253L191.943 48.9694C191.379 50.194 190.088 50.4958 189.125 50.4958C187.589 50.4958 186.223 49.6128 186.223 47.971C186.223 46.0674 187.904 45.4551 189.107 45.4551C191.241 45.4551 192.04 47.0747 192.04 47.9488V48.0864H187.177ZM191.006 47.3986C190.762 46.7108 190.23 46.1473 189.169 46.1473C188.313 46.1473 187.518 46.5555 187.208 47.3986H191.006Z" fill="black"/>
<path d="M201.807 45.6015L199.127 50.8064C198.807 51.4276 198.457 52 197.352 52C196.917 52 196.353 51.9024 196.247 51.8846V51.0504C196.731 51.1569 196.984 51.1969 197.219 51.1969C197.791 51.1969 198.044 50.975 198.364 50.3804L195.954 45.6015H197.001L198.856 49.4264L200.778 45.6015H201.807Z" fill="black"/>
<path d="M208.343 49.0891C207.895 49.9544 206.928 50.5179 205.459 50.5179C203.604 50.5179 202.331 49.6749 202.331 47.9532C202.331 46.3514 203.711 45.4772 205.486 45.4772C206.963 45.4772 207.886 46.0984 208.29 46.9149L207.407 47.1678C207.079 46.5777 206.409 46.2049 205.486 46.2049C204.367 46.2049 203.311 46.8084 203.311 48.0286C203.311 49.3021 204.536 49.7769 205.494 49.7769C206.444 49.7769 207.154 49.3864 207.456 48.854L208.343 49.0891Z" fill="black"/>
<path d="M213.872 50.3493V46.3114H210.961V47.0702C210.961 49.6216 210.562 50.3538 209.147 50.3538H208.885V49.6527H209.147C209.954 49.6349 210.118 49.1956 210.118 46.835V45.6104H214.809V50.3493H213.872Z" fill="black"/>
<path d="M221.469 45.6015L218.789 50.8064C218.47 51.4276 218.119 52 217.014 52C216.575 52 216.016 51.9024 215.905 51.8846V51.0504C216.388 51.1569 216.641 51.1969 216.876 51.1969C217.449 51.1969 217.702 50.975 218.021 50.3804L215.612 45.6015H216.659L218.514 49.4264L220.435 45.6015H221.469Z" fill="black"/>
<path d="M226.936 46.3114H223.266V50.3493H222.334V45.6104H226.936V46.3114Z" fill="black"/>
<path d="M232.621 50.3493V47.0569L228.787 49.7059V50.3449H227.855V45.6059H228.787V48.8007L232.621 46.1517V45.6104H233.553V50.3493H232.621Z" fill="black"/>
<path d="M242.263 45.6104C243.12 45.6104 243.777 45.9786 243.777 46.804C243.777 47.3852 243.426 47.6781 242.934 47.8245C243.537 47.9399 243.972 48.2816 243.972 49.0093C243.972 50.0298 243.129 50.3493 242.255 50.3493H238.447V45.6104H242.263ZM239.379 47.5627H241.913C242.508 47.5627 242.854 47.3675 242.854 46.8927C242.854 46.3602 242.428 46.2626 241.931 46.2626H239.379V47.5627ZM239.379 49.7015H241.913C242.805 49.7015 243.04 49.5284 243.04 48.9738C243.04 48.4191 242.681 48.215 241.642 48.215H239.379V49.7015Z" fill="black"/>
<path d="M252.949 50.3493V46.3114H250.038V47.0702C250.038 49.6216 249.638 50.3538 248.223 50.3538H247.961V49.6527H248.223C249.03 49.6349 249.195 49.1956 249.195 46.835V45.6104H253.885V50.3493H252.949Z" fill="black"/>
<path d="M258.238 50.4958C256.441 50.4958 255.132 49.5817 255.132 48.0775C255.132 46.134 256.938 45.495 258.211 45.495C259.707 45.495 261.318 46.1561 261.318 48.002C261.313 49.3687 260.199 50.4958 258.238 50.4958ZM258.189 46.2538C257.133 46.2538 256.064 46.8572 256.064 48.0198C256.064 49.0093 256.947 49.7281 258.287 49.7281C259.21 49.7281 260.395 49.2445 260.395 47.9798C260.39 46.6797 259.139 46.2538 258.189 46.2538Z" fill="black"/>
<path d="M267.348 46.3114H263.678V50.3493H262.747V45.6104H267.348V46.3114Z" fill="black"/>
<path d="M273.033 50.3493V47.0569L269.199 49.7059V50.3449H268.267V45.6059H269.199V48.8007L273.033 46.1517V45.6104H273.965V50.3493H273.033Z" fill="black"/>
<path d="M281.229 49.0891C280.78 49.9544 279.813 50.5179 278.344 50.5179C276.489 50.5179 275.216 49.6749 275.216 47.9532C275.216 46.3514 276.596 45.4772 278.371 45.4772C279.849 45.4772 280.772 46.0984 281.175 46.9149L280.292 47.1678C279.964 46.5777 279.294 46.2049 278.371 46.2049C277.253 46.2049 276.196 46.8084 276.196 48.0286C276.196 49.3021 277.421 49.7769 278.38 49.7769C279.329 49.7769 280.039 49.3864 280.341 48.854L281.229 49.0891Z" fill="black"/>
<path d="M284.925 46.3114V50.3493H283.993V46.3114H281.77V45.6104H287.148V46.3114H284.925Z" fill="black"/>
<path d="M293.139 50.3493V47.0569L289.305 49.7059V50.3449H288.373V45.6059H289.305V48.8007L293.139 46.1517V45.6104H294.071V50.3493H293.139Z" fill="black"/>
<path d="M296.596 47.4562H298.77C300.004 47.4562 299.587 46.3203 300.15 45.6104H301.149C300.412 46.5333 300.829 47.4341 299.866 47.758C301.06 47.9443 300.612 49.3998 301.322 50.3493H300.332C299.768 49.6704 300.301 48.1529 298.73 48.1529H296.596V50.3493H295.664V45.6104H296.596V47.4562Z" fill="black"/>
<path d="M303.136 48.0864C303.176 48.8939 303.855 49.7548 305.213 49.7548C305.941 49.7548 306.709 49.4353 307.019 48.7253L307.902 48.9694C307.339 50.194 306.047 50.4958 305.085 50.4958C303.549 50.4958 302.182 49.6128 302.182 47.971C302.182 46.0674 303.864 45.4551 305.067 45.4551C307.201 45.4551 308 47.0747 308 47.9488V48.0864H303.136ZM306.962 47.3986C306.717 46.7108 306.185 46.1473 305.124 46.1473C304.268 46.1473 303.474 46.5555 303.163 47.3986H306.962Z" fill="black"/>
</g>
<defs>
<clipPath id="clip0">
<rect width="308" height="52" fill="white"/>
</clipPath>
</defs>
</svg>
