<svg width="28" height="28" viewBox="0 0 28 28" fill="none" xmlns="http://www.w3.org/2000/svg">
<path fill-rule="evenodd" clip-rule="evenodd" d="M14 26.5C20.9036 26.5 26.5 20.9036 26.5 14C26.5 7.09644 20.9036 1.5 14 1.5C7.09644 1.5 1.5 7.09644 1.5 14C1.5 20.9036 7.09644 26.5 14 26.5ZM14 28C21.732 28 28 21.732 28 14C28 6.26801 21.732 0 14 0C6.26801 0 0 6.26801 0 14C0 21.732 6.26801 28 14 28Z" fill="#E76060"/>
<path fill-rule="evenodd" clip-rule="evenodd" d="M7.46967 7.46967C7.76256 7.17678 8.23744 7.17678 8.53033 7.46967L14 12.9393L19.4697 7.46967C19.7626 7.17678 20.2374 7.17678 20.5303 7.46967C20.8232 7.76256 20.8232 8.23744 20.5303 8.53033L15.0607 14L20.5303 19.4697C20.8232 19.7626 20.8232 20.2374 20.5303 20.5303C20.2374 20.8232 19.7626 20.8232 19.4697 20.5303L14 15.0607L8.53033 20.5303C8.23744 20.8232 7.76256 20.8232 7.46967 20.5303C7.17678 20.2374 7.17678 19.7626 7.46967 19.4697L12.9393 14L7.46967 8.53033C7.17678 8.23744 7.17678 7.76256 7.46967 7.46967Z" fill="#E76060"/>
</svg>
