<svg width="28" height="22" viewBox="0 0 28 22" fill="none" xmlns="http://www.w3.org/2000/svg">
<path fill-rule="evenodd" clip-rule="evenodd" d="M1.86745 10.5C1.98198 10.6853 2.14548 10.9363 2.35958 11.2328C2.84223 11.901 3.57823 12.7952 4.58536 13.6891C6.59511 15.4729 9.67489 17.25 14 17.25C18.3251 17.25 21.4049 15.4729 23.4146 13.6891C24.4218 12.7952 25.1578 11.901 25.6404 11.2328C25.8545 10.9363 26.018 10.6853 26.1326 10.5C26.018 10.3147 25.8545 10.0637 25.6404 9.76724C25.1578 9.09896 24.4218 8.20483 23.4146 7.31092C21.4049 5.52713 18.3251 3.75 14 3.75C9.67489 3.75 6.59511 5.52713 4.58536 7.31092C3.57823 8.20483 2.84223 9.09896 2.35958 9.76724C2.14548 10.0637 1.98198 10.3147 1.86745 10.5ZM27 10.5C27.6654 10.154 27.6652 10.1536 27.665 10.1533L27.6646 10.1524L27.6634 10.1501L27.6599 10.1435L27.6486 10.1223C27.6391 10.1047 27.6256 10.0801 27.6082 10.0491C27.5734 9.98702 27.5228 9.89899 27.4559 9.78872C27.3221 9.56828 27.1232 9.25842 26.8564 8.88901C26.3235 8.15104 25.5157 7.17017 24.4104 6.18908C22.1951 4.22287 18.7749 2.25 14 2.25C9.22512 2.25 5.8049 4.22287 3.58964 6.18908C2.48427 7.17017 1.67653 8.15104 1.14356 8.88901C0.876757 9.25842 0.677864 9.56828 0.544129 9.78872C0.477235 9.89899 0.42656 9.98702 0.391768 10.0491C0.37437 10.0801 0.360934 10.1047 0.351421 10.1223L0.340083 10.1435L0.336609 10.1501L0.335418 10.1524L0.334959 10.1533C0.334767 10.1536 0.334591 10.154 1 10.5L0.334591 10.154L0.154663 10.5L0.334591 10.846L1 10.5C0.334591 10.846 0.334767 10.8464 0.334959 10.8467L0.335418 10.8476L0.336609 10.8499L0.340083 10.8565L0.351421 10.8777C0.360934 10.8953 0.37437 10.9199 0.391768 10.9509C0.42656 11.013 0.477235 11.101 0.544129 11.2113C0.677864 11.4317 0.876757 11.7416 1.14356 12.111C1.67653 12.849 2.48427 13.8298 3.58964 14.8109C5.8049 16.7771 9.22512 18.75 14 18.75C18.7749 18.75 22.1951 16.7771 24.4104 14.8109C25.5157 13.8298 26.3235 12.849 26.8564 12.111C27.1232 11.7416 27.3221 11.4317 27.4559 11.2113C27.5228 11.101 27.5734 11.013 27.6082 10.9509C27.6256 10.9199 27.6391 10.8953 27.6486 10.8777L27.6599 10.8565L27.6634 10.8499L27.6646 10.8476L27.665 10.8467C27.6652 10.8464 27.6654 10.846 27 10.5ZM27 10.5L27.6654 10.846L27.8453 10.5L27.6654 10.154L27 10.5Z" fill="black"/>
<path fill-rule="evenodd" clip-rule="evenodd" d="M14 6.75C12.2051 6.75 10.75 8.20507 10.75 10C10.75 11.7949 12.2051 13.25 14 13.25C15.7949 13.25 17.25 11.7949 17.25 10C17.25 8.20507 15.7949 6.75 14 6.75ZM9.25 10C9.25 7.37665 11.3766 5.25 14 5.25C16.6234 5.25 18.75 7.37665 18.75 10C18.75 12.6234 16.6234 14.75 14 14.75C11.3766 14.75 9.25 12.6234 9.25 10Z" fill="black"/>
</svg>
