<svg width="28" height="24" viewBox="0 0 28 24" fill="none" xmlns="http://www.w3.org/2000/svg">
<path fill-rule="evenodd" clip-rule="evenodd" d="M1.86745 11.5C1.98198 11.6853 2.14548 11.9363 2.35958 12.2328C2.84223 12.901 3.57823 13.7952 4.58536 14.6891C6.59511 16.4729 9.67489 18.25 14 18.25C18.3251 18.25 21.4049 16.4729 23.4146 14.6891C24.4218 13.7952 25.1578 12.901 25.6404 12.2328C25.8545 11.9363 26.018 11.6853 26.1326 11.5C26.018 11.3147 25.8545 11.0637 25.6404 10.7672C25.1578 10.099 24.4218 9.20483 23.4146 8.31092C21.4049 6.52713 18.3251 4.75 14 4.75C9.67489 4.75 6.59511 6.52713 4.58536 8.31092C3.57823 9.20483 2.84223 10.099 2.35958 10.7672C2.14548 11.0637 1.98198 11.3147 1.86745 11.5ZM27 11.5C27.6654 11.154 27.6652 11.1536 27.665 11.1533L27.6646 11.1524L27.6634 11.1501L27.6599 11.1435L27.6486 11.1223C27.6391 11.1047 27.6256 11.0801 27.6082 11.0491C27.5734 10.987 27.5228 10.899 27.4559 10.7887C27.3221 10.5683 27.1232 10.2584 26.8564 9.88901C26.3235 9.15104 25.5157 8.17017 24.4104 7.18908C22.1951 5.22287 18.7749 3.25 14 3.25C9.22512 3.25 5.8049 5.22287 3.58964 7.18908C2.48427 8.17017 1.67653 9.15104 1.14356 9.88901C0.876757 10.2584 0.677864 10.5683 0.544129 10.7887C0.477235 10.899 0.42656 10.987 0.391768 11.0491C0.37437 11.0801 0.360934 11.1047 0.351421 11.1223L0.340083 11.1435L0.336609 11.1501L0.335418 11.1524L0.334959 11.1533C0.334767 11.1536 0.334591 11.154 1 11.5L0.334591 11.154L0.154663 11.5L0.334591 11.846L1 11.5C0.334591 11.846 0.334767 11.8464 0.334959 11.8467L0.335418 11.8476L0.336609 11.8499L0.340083 11.8565L0.351421 11.8777C0.360934 11.8953 0.37437 11.9199 0.391768 11.9509C0.42656 12.013 0.477235 12.101 0.544129 12.2113C0.677864 12.4317 0.876757 12.7416 1.14356 13.111C1.67653 13.849 2.48427 14.8298 3.58964 15.8109C5.8049 17.7771 9.22512 19.75 14 19.75C18.7749 19.75 22.1951 17.7771 24.4104 15.8109C25.5157 14.8298 26.3235 13.849 26.8564 13.111C27.1232 12.7416 27.3221 12.4317 27.4559 12.2113C27.5228 12.101 27.5734 12.013 27.6082 11.9509C27.6256 11.9199 27.6391 11.8953 27.6486 11.8777L27.6599 11.8565L27.6634 11.8499L27.6646 11.8476L27.665 11.8467C27.6652 11.8464 27.6654 11.846 27 11.5ZM27 11.5L27.6654 11.846L27.8453 11.5L27.6654 11.154L27 11.5Z" fill="#ABABAB"/>
<path fill-rule="evenodd" clip-rule="evenodd" d="M14 7.75C12.2051 7.75 10.75 9.20507 10.75 11C10.75 12.7949 12.2051 14.25 14 14.25C15.7949 14.25 17.25 12.7949 17.25 11C17.25 9.20507 15.7949 7.75 14 7.75ZM9.25 11C9.25 8.37665 11.3766 6.25 14 6.25C16.6234 6.25 18.75 8.37665 18.75 11C18.75 13.6234 16.6234 15.75 14 15.75C11.3766 15.75 9.25 13.6234 9.25 11Z" fill="#ABABAB"/>
<path fill-rule="evenodd" clip-rule="evenodd" d="M24.5303 0.46967C24.8232 0.762563 24.8232 1.23744 24.5303 1.53033L2.53033 23.5303C2.23744 23.8232 1.76256 23.8232 1.46967 23.5303C1.17678 23.2374 1.17678 22.7626 1.46967 22.4697L23.4697 0.46967C23.7626 0.176777 24.2374 0.176777 24.5303 0.46967Z" fill="#ABABAB"/>
</svg>
