<svg width="26" height="32" viewBox="0 0 26 32" fill="none" xmlns="http://www.w3.org/2000/svg">
<path d="M23 31.5H3C1.625 31.5 0.5 30.375 0.5 29V3C0.5 1.625 1.625 0.5 3 0.5H13.175C13.85 0.5 14.475 0.75 14.95 1.225L24.775 11.05C25.25 11.525 25.5 12.15 25.5 12.825V29C25.5 30.375 24.375 31.5 23 31.5ZM3 1.5C2.175 1.5 1.5 2.175 1.5 3V29C1.5 29.825 2.175 30.5 3 30.5H23C23.825 30.5 24.5 29.825 24.5 29V12.825C24.5 12.425 24.35 12.05 24.05 11.775L14.225 1.95C13.95 1.65 13.575 1.5 13.175 1.5H3Z" fill="#1D409D"/>
<path d="M16.675 24H14.6L13.45 19.5C13.4 19.35 13.325 19 13.225 18.5C13.125 18 13.05 17.65 13.05 17.5C13.025 17.7 12.975 18.05 12.875 18.525C12.775 19 12.7 19.325 12.65 19.525L11.5 24H9.425L7.25 15.425H9.025L10.125 20.1C10.325 20.975 10.45 21.7 10.55 22.35C10.575 22.125 10.625 21.775 10.7 21.325C10.775 20.875 10.875 20.5 10.925 20.25L12.175 15.45H13.9L15.15 20.25C15.2 20.475 15.275 20.8 15.35 21.225C15.425 21.65 15.5 22.05 15.55 22.35C15.6 22.05 15.65 21.675 15.75 21.2C15.85 20.725 15.925 20.375 15.975 20.1L17.075 15.425H18.85L16.675 24Z" fill="#1D409D"/>
</svg>
