<svg width="26" height="32" viewBox="0 0 26 32" fill="none" xmlns="http://www.w3.org/2000/svg">
<path d="M17 24H14.925L12.925 20.75L10.925 24H9L11.85 19.575L9.175 15.425H11.175L13.025 18.5L14.825 15.425H16.775L14.075 19.675L17 24Z" fill="#007732"/>
<path d="M23 31.5H3C1.625 31.5 0.5 30.375 0.5 29V3C0.5 1.625 1.625 0.5 3 0.5H13.175C13.85 0.5 14.475 0.75 14.95 1.225L24.775 11.05C25.25 11.525 25.5 12.15 25.5 12.825V29C25.5 30.375 24.375 31.5 23 31.5ZM3 1.5C2.175 1.5 1.5 2.175 1.5 3V29C1.5 29.825 2.175 30.5 3 30.5H23C23.825 30.5 24.5 29.825 24.5 29V12.825C24.5 12.425 24.35 12.05 24.05 11.775L14.225 1.95C13.95 1.65 13.575 1.5 13.175 1.5H3Z" fill="#007732"/>
</svg>
