<svg width="26" height="32" viewBox="0 0 26 32" fill="none" xmlns="http://www.w3.org/2000/svg">
<path d="M23 31.5H3C1.6215 31.5 0.5 30.3785 0.5 29V3C0.5 1.6215 1.6215 0.5 3 0.5H13.1717C13.8395 0.5 14.4675 0.76025 14.9393 1.23225L24.7677 11.0608C25.24 11.533 25.5 12.1605 25.5 12.8282V29C25.5 30.3785 24.3785 31.5 23 31.5ZM3 1.5C2.17275 1.5 1.5 2.17275 1.5 3V29C1.5 29.8272 2.17275 30.5 3 30.5H23C23.8272 30.5 24.5 29.8272 24.5 29V12.8282C24.5 12.4335 24.3397 12.047 24.0607 11.7677L14.2323 1.93925C13.949 1.656 13.5722 1.5 13.1717 1.5H3Z" fill="#FD4233"/>
<path d="M20.8025 20.08C20.785 19.9525 20.6825 19.7925 20.5725 19.685C20.2575 19.375 19.565 19.2125 18.51 19.1975C17.795 19.19 16.935 19.2525 16.03 19.38C15.625 19.1475 15.2075 18.8925 14.88 18.585C13.9975 17.7625 13.2625 16.62 12.8025 15.3625C12.8325 15.245 12.8575 15.1425 12.8825 15.0375C12.8825 15.0375 13.3775 12.2175 13.2475 11.2625C13.23 11.1325 13.2175 11.095 13.1825 10.9925L13.14 10.8825C13.005 10.57 12.74 10.24 12.325 10.2575L12.08 10.25H12.075C11.61 10.25 11.235 10.4875 11.135 10.84C10.835 11.95 11.145 13.6125 11.7075 15.7625L11.5625 16.1125C11.16 17.0975 10.655 18.0875 10.21 18.96L10.1525 19.0725C9.68254 19.99 9.25754 20.77 8.87004 21.43L8.47254 21.64C8.44254 21.655 7.76004 22.0175 7.60004 22.1125C6.24254 22.925 5.34254 23.845 5.19254 24.575C5.14504 24.81 5.18004 25.1075 5.42254 25.245L5.80754 25.44C5.97504 25.5225 6.15254 25.565 6.33254 25.565C7.30004 25.565 8.42254 24.36 9.97004 21.66C11.755 21.08 13.79 20.595 15.5725 20.33C16.93 21.0925 18.6 21.625 19.655 21.625C19.8425 21.625 20.005 21.6075 20.135 21.5725C20.3375 21.5175 20.5075 21.4025 20.6125 21.2475C20.8175 20.94 20.8575 20.515 20.8025 20.08ZM6.12254 24.8325C6.29754 24.35 6.99754 23.395 8.03004 22.55C8.09504 22.4975 8.25504 22.3475 8.40004 22.2075C7.32003 23.93 6.59754 24.615 6.12254 24.8325ZM12.2375 10.75C12.5475 10.75 12.725 11.5325 12.74 12.2675C12.755 13.0025 12.5825 13.5175 12.37 13.9C12.1925 13.335 12.1075 12.445 12.1075 11.8625C12.1075 11.8625 12.095 10.75 12.2375 10.75ZM10.4125 20.785C10.63 20.3975 10.855 19.9875 11.085 19.555C11.6475 18.4925 12.0025 17.6625 12.265 16.98C12.79 17.935 13.445 18.7475 14.2125 19.3975C14.31 19.4775 14.4125 19.56 14.5175 19.6425C12.955 19.95 11.6025 20.3275 10.4125 20.785ZM20.27 20.6975C20.175 20.755 19.9025 20.79 19.7275 20.79C19.1625 20.79 18.46 20.5325 17.4775 20.11C17.855 20.0825 18.2025 20.0675 18.5125 20.0675C19.08 20.0675 19.2475 20.065 19.805 20.2075C20.36 20.35 20.3675 20.6375 20.27 20.6975Z" fill="#FF402F"/>
</svg>
