<svg width="36" height="36" viewBox="0 0 36 36" fill="none" xmlns="http://www.w3.org/2000/svg">
<path fill-rule="evenodd" clip-rule="evenodd" d="M20.7512 5.578C21.5265 5.13979 22.4789 5.14067 23.2534 5.58065L34.4874 11.9619C35.2649 12.4035 35.75 13.2241 35.75 14.1188V26.8812C35.75 27.7759 35.2649 28.5965 34.4874 29.0381L23.2534 35.4194C22.4773 35.8602 21.5227 35.8602 20.7466 35.4193L9.51257 29.0381C8.73514 28.5965 8.25 27.7759 8.25 26.8812V17H9.75V26.8812C9.75 27.2281 9.93806 27.5547 10.2534 27.7338L21.25 33.9802V20.8733C21.0801 20.8209 20.9145 20.7501 20.7563 20.6612L20.7421 20.653L13.1183 16.1456L13.8817 14.8544L15.5107 15.8175L26.9717 9.41781L22.5126 6.88492C22.1959 6.70503 21.8041 6.70503 21.4874 6.88492L21.4788 6.88981L17.3618 9.15697L16.6382 7.84303L20.7512 5.578ZM28.4968 10.2842L17.0051 16.701L21.4975 19.3571C21.8111 19.5306 22.196 19.5294 22.5086 19.3536L33.5426 13.1503L28.4968 10.2842ZM34.25 14.4734L23.2437 20.6612C23.0855 20.7501 22.9199 20.8209 22.75 20.8733V33.9802L33.7466 27.7338C34.0619 27.5547 34.25 27.2281 34.25 26.8812V14.4734Z" fill="#E76060"/>
<path fill-rule="evenodd" clip-rule="evenodd" d="M9 1.75C4.99594 1.75 1.75 4.99594 1.75 9C1.75 13.0041 4.99594 16.25 9 16.25C13.0041 16.25 16.25 13.0041 16.25 9C16.25 4.99594 13.0041 1.75 9 1.75ZM0.25 9C0.25 4.16751 4.16751 0.25 9 0.25C13.8325 0.25 17.75 4.16751 17.75 9C17.75 13.8325 13.8325 17.75 9 17.75C4.16751 17.75 0.25 13.8325 0.25 9ZM9 4.25C9.41421 4.25 9.75 4.58579 9.75 5V8.25H13C13.4142 8.25 13.75 8.58579 13.75 9C13.75 9.41421 13.4142 9.75 13 9.75H9.75V13C9.75 13.4142 9.41421 13.75 9 13.75C8.58579 13.75 8.25 13.4142 8.25 13V9.75H5C4.58579 9.75 4.25 9.41421 4.25 9C4.25 8.58579 4.58579 8.25 5 8.25H8.25V5C8.25 4.58579 8.58579 4.25 9 4.25Z" fill="#E76060"/>
</svg>
