<svg width="29" height="35" viewBox="0 0 29 35" fill="none" xmlns="http://www.w3.org/2000/svg">
<path fill-rule="evenodd" clip-rule="evenodd" d="M0.25 3C0.25 1.48122 1.48122 0.25 3 0.25H21C22.5188 0.25 23.75 1.48122 23.75 3V27C23.75 28.5188 22.5188 29.75 21 29.75H3C1.48122 29.75 0.25 28.5188 0.25 27V3ZM3 1.75C2.30964 1.75 1.75 2.30964 1.75 3V27C1.75 27.6904 2.30964 28.25 3 28.25H21C21.6904 28.25 22.25 27.6904 22.25 27V3C22.25 2.30964 21.6904 1.75 21 1.75H3Z" fill="#E76060"/>
<path fill-rule="evenodd" clip-rule="evenodd" d="M26 6.75H23V5.25H26C27.5188 5.25 28.75 6.48122 28.75 8V32C28.75 33.5188 27.5188 34.75 26 34.75H8C6.48122 34.75 5.25 33.5188 5.25 32V29H6.75V32C6.75 32.6904 7.30964 33.25 8 33.25H26C26.6904 33.25 27.25 32.6904 27.25 32V8C27.25 7.30964 26.6904 6.75 26 6.75Z" fill="#E76060"/>
<path fill-rule="evenodd" clip-rule="evenodd" d="M15.1414 17.75C15.0033 17.75 14.8914 17.8619 14.8914 18V19.7283H17.5065C17.8127 19.7283 17.9695 19.6166 18.0673 19.4857C18.1843 19.3291 18.2619 19.0766 18.2485 18.7721C18.2352 18.4689 18.1341 18.1896 17.9897 18.0036C17.8564 17.832 17.7 17.75 17.5065 17.75H15.1414ZM14.8914 21.2283H17.5065C18.2709 21.2283 18.879 20.9052 19.2687 20.3839C19.6392 19.8883 19.7719 19.2712 19.7471 18.7062C19.7222 18.1398 19.5364 17.5496 19.1742 17.0833C18.8009 16.6028 18.2307 16.25 17.5065 16.25H15.1414C14.1748 16.25 13.3914 17.0335 13.3914 18V19.7283H12C11.5858 19.7283 11.25 20.064 11.25 20.4783C11.25 20.8925 11.5858 21.2283 12 21.2283H13.3914V22.0278H12C11.5858 22.0278 11.25 22.3636 11.25 22.7778C11.25 23.192 11.5858 23.5278 12 23.5278H13.3914V25C13.3914 25.4142 13.7272 25.75 14.1414 25.75C14.5556 25.75 14.8914 25.4142 14.8914 25V23.5278H17.5C17.9142 23.5278 18.25 23.192 18.25 22.7778C18.25 22.3636 17.9142 22.0278 17.5 22.0278H14.8914V21.2283Z" fill="#E76060"/>
<path fill-rule="evenodd" clip-rule="evenodd" d="M4.25 6C4.25 5.58579 4.58579 5.25 5 5.25H19C19.4142 5.25 19.75 5.58579 19.75 6C19.75 6.41421 19.4142 6.75 19 6.75H5C4.58579 6.75 4.25 6.41421 4.25 6Z" fill="#E76060"/>
<path fill-rule="evenodd" clip-rule="evenodd" d="M4.25 9C4.25 8.58579 4.58579 8.25 5 8.25H19C19.4142 8.25 19.75 8.58579 19.75 9C19.75 9.41421 19.4142 9.75 19 9.75H5C4.58579 9.75 4.25 9.41421 4.25 9Z" fill="#E76060"/>
<path fill-rule="evenodd" clip-rule="evenodd" d="M4.25 12C4.25 11.5858 4.58579 11.25 5 11.25H19C19.4142 11.25 19.75 11.5858 19.75 12C19.75 12.4142 19.4142 12.75 19 12.75H5C4.58579 12.75 4.25 12.4142 4.25 12Z" fill="#E76060"/>
</svg>
