<svg width="32" height="36" viewBox="0 0 32 36" fill="none" xmlns="http://www.w3.org/2000/svg">
<path fill-rule="evenodd" clip-rule="evenodd" d="M29.8097 9.30701L16.3411 1.59049L17.0868 0.28897L30.9132 8.21052C31.5857 8.59581 32 9.30786 32 10.0785V25.9215C32 26.6921 31.5857 27.4042 30.9132 27.7895L17.0868 35.711C16.4143 36.0963 15.5857 36.0963 14.9132 35.711L1.08678 27.7895C0.414277 27.4042 0 26.6921 0 25.9215V10.0785C0 9.30786 0.414277 8.59581 1.08678 8.21052L14.9132 0.28897C15.5857 -0.0963235 16.4143 -0.0963233 17.0868 0.28897L16.3411 1.59049C16.1305 1.46984 15.8695 1.46984 15.6589 1.59049L2.19031 9.30701L15.2916 16.7361C15.7303 16.9849 16.2697 16.9849 16.7084 16.7361L29.8097 9.30701ZM1.5 10.6399V25.9215C1.5 26.1506 1.62313 26.368 1.83246 26.488L15.25 34.1752V18.3255C15.0089 18.2618 14.774 18.167 14.5517 18.0409L1.5 10.6399ZM16.75 18.3255C16.9911 18.2618 17.226 18.167 17.4483 18.0409L30.5 10.6399V25.9215C30.5 26.1506 30.3769 26.368 30.1675 26.488L16.75 34.1752V18.3255Z" fill="black"/>
<path fill-rule="evenodd" clip-rule="evenodd" d="M23.3696 5.65251L8.36965 14.1525L7.63013 12.8475L22.6301 4.34747L23.3696 5.65251Z" fill="black"/>
</svg>
