<svg width="27" height="38" viewBox="0 0 27 38" fill="none" xmlns="http://www.w3.org/2000/svg">
<path fill-rule="evenodd" clip-rule="evenodd" d="M18.1414 19.75C18.0033 19.75 17.8914 19.8619 17.8914 20V21.7283H20.5065C20.8127 21.7283 20.9695 21.6166 21.0673 21.4857C21.1843 21.3291 21.2619 21.0766 21.2485 20.7721C21.2352 20.4689 21.1341 20.1896 20.9897 20.0036C20.8564 19.832 20.7 19.75 20.5065 19.75H18.1414ZM17.8914 23.2283H20.5065C21.2709 23.2283 21.879 22.9052 22.2687 22.3839C22.6392 21.8883 22.7719 21.2712 22.7471 20.7062C22.7222 20.1398 22.5364 19.5496 22.1742 19.0833C21.8009 18.6028 21.2307 18.25 20.5065 18.25H18.1414C17.1748 18.25 16.3914 19.0335 16.3914 20V21.7283H15C14.5858 21.7283 14.25 22.064 14.25 22.4783C14.25 22.8925 14.5858 23.2283 15 23.2283H16.3914V24.0278H15C14.5858 24.0278 14.25 24.3636 14.25 24.7778C14.25 25.192 14.5858 25.5278 15 25.5278H16.3914V27C16.3914 27.4142 16.7272 27.75 17.1414 27.75C17.5556 27.75 17.8914 27.4142 17.8914 27V25.5278H20.5C20.9142 25.5278 21.25 25.192 21.25 24.7778C21.25 24.3636 20.9142 24.0278 20.5 24.0278H17.8914V23.2283Z" fill="#E76060"/>
<path fill-rule="evenodd" clip-rule="evenodd" d="M5.25 8C5.25 7.58579 5.58579 7.25 6 7.25H20C20.4142 7.25 20.75 7.58579 20.75 8C20.75 8.41421 20.4142 8.75 20 8.75H6C5.58579 8.75 5.25 8.41421 5.25 8Z" fill="#E76060"/>
<path fill-rule="evenodd" clip-rule="evenodd" d="M9.25 11C9.25 10.5858 9.58579 10.25 10 10.25H16C16.4142 10.25 16.75 10.5858 16.75 11C16.75 11.4142 16.4142 11.75 16 11.75H10C9.58579 11.75 9.25 11.4142 9.25 11Z" fill="#E76060"/>
<path fill-rule="evenodd" clip-rule="evenodd" d="M6.75 19C6.75 18.5858 6.41421 18.25 6 18.25H5C4.58579 18.25 4.25 18.5858 4.25 19C4.25 19.4142 4.58579 19.75 5 19.75H6C6.41421 19.75 6.75 19.4142 6.75 19Z" fill="#E76060"/>
<path fill-rule="evenodd" clip-rule="evenodd" d="M7.25 19C7.25 18.5858 7.58579 18.25 8 18.25H12C12.4142 18.25 12.75 18.5858 12.75 19C12.75 19.4142 12.4142 19.75 12 19.75H8C7.58579 19.75 7.25 19.4142 7.25 19Z" fill="#E76060"/>
<path fill-rule="evenodd" clip-rule="evenodd" d="M6.75 23C6.75 22.5858 6.41421 22.25 6 22.25H5C4.58579 22.25 4.25 22.5858 4.25 23C4.25 23.4142 4.58579 23.75 5 23.75H6C6.41421 23.75 6.75 23.4142 6.75 23Z" fill="#E76060"/>
<path fill-rule="evenodd" clip-rule="evenodd" d="M7.25 23C7.25 22.5858 7.58579 22.25 8 22.25H12C12.4142 22.25 12.75 22.5858 12.75 23C12.75 23.4142 12.4142 23.75 12 23.75H8C7.58579 23.75 7.25 23.4142 7.25 23Z" fill="#E76060"/>
<path fill-rule="evenodd" clip-rule="evenodd" d="M6.75 27C6.75 26.5858 6.41421 26.25 6 26.25H5C4.58579 26.25 4.25 26.5858 4.25 27C4.25 27.4142 4.58579 27.75 5 27.75H6C6.41421 27.75 6.75 27.4142 6.75 27Z" fill="#E76060"/>
<path fill-rule="evenodd" clip-rule="evenodd" d="M7.25 27C7.25 26.5858 7.58579 26.25 8 26.25H12C12.4142 26.25 12.75 26.5858 12.75 27C12.75 27.4142 12.4142 27.75 12 27.75H8C7.58579 27.75 7.25 27.4142 7.25 27Z" fill="#E76060"/>
<path fill-rule="evenodd" clip-rule="evenodd" d="M5.67678 2.23744C5.57915 2.13981 5.42085 2.13981 5.32322 2.23744L4.91417 2.64649C4.12096 3.4397 2.79607 3.28881 2.20154 2.33756C2.16009 2.27124 2.1169 2.24546 2.08131 2.23312C2.03944 2.2186 1.98477 2.21561 1.92698 2.23219C1.86918 2.24876 1.82441 2.28027 1.79661 2.31477C1.77297 2.3441 1.75 2.38885 1.75 2.46706V35.5329C1.75 35.6111 1.77297 35.6559 1.79661 35.6852C1.82441 35.7197 1.86918 35.7512 1.92698 35.7678C1.98477 35.7844 2.03944 35.7814 2.08131 35.7669C2.1169 35.7545 2.16009 35.7288 2.20154 35.6624C2.79607 34.7112 4.12096 34.5603 4.91417 35.3535L5.32322 35.7626C5.42085 35.8602 5.57914 35.8602 5.67678 35.7626L6.26256 35.1768C6.94598 34.4934 8.05402 34.4934 8.73744 35.1768L9.32322 35.7626C9.42085 35.8602 9.57915 35.8602 9.67678 35.7626L10.2626 35.1768C10.946 34.4934 12.054 34.4934 12.7374 35.1768L13.3232 35.7626C13.4209 35.8602 13.5791 35.8602 13.6768 35.7626L14.2626 35.1768C14.946 34.4934 16.054 34.4934 16.7374 35.1768L17.3232 35.7626C17.4209 35.8602 17.5791 35.8602 17.6768 35.7626L18.2626 35.1768C18.946 34.4934 20.054 34.4934 20.7374 35.1768L21.3232 35.7626C21.4209 35.8602 21.5791 35.8602 21.6768 35.7626L22.1895 35.2499C22.9353 34.5041 24.1926 34.7081 24.6643 35.6515C24.673 35.669 24.6794 35.6749 24.6798 35.6753C24.68 35.6754 24.6801 35.6755 24.6802 35.6756C24.6818 35.6763 24.6944 35.6802 24.7151 35.6753C24.7359 35.6704 24.7454 35.6612 24.7465 35.6599C24.7466 35.6598 24.7466 35.6597 24.7467 35.6595C24.7469 35.6589 24.75 35.6508 24.75 35.6312V2.36877C24.75 2.34941 24.747 2.34124 24.7467 2.34054L24.7467 2.34053C24.7466 2.34033 24.7466 2.34019 24.7465 2.34008C24.7454 2.33878 24.7359 2.32963 24.7151 2.32472C24.6944 2.31982 24.6818 2.32376 24.6802 2.32442C24.6801 2.32449 24.68 2.3246 24.6798 2.32474L24.6798 2.32476C24.6793 2.32528 24.6729 2.33124 24.6643 2.34853C24.1926 3.29191 22.9353 3.49594 22.1895 2.75013L21.6768 2.23744C21.5791 2.1398 21.4209 2.13981 21.3232 2.23744L20.7374 2.82322C20.054 3.50664 18.946 3.50664 18.2626 2.82322L17.6768 2.23744C17.5791 2.1398 17.4209 2.13981 17.3232 2.23744L16.7374 2.82322C16.054 3.50664 14.946 3.50664 14.2626 2.82322L13.6768 2.23744C13.5791 2.13981 13.4209 2.13981 13.3232 2.23744L12.7374 2.82322C12.054 3.50664 10.946 3.50664 10.2626 2.82322L9.67678 2.23744C9.57915 2.13981 9.42086 2.13981 9.32322 2.23744L8.73744 2.82322C8.05402 3.50664 6.94598 3.50664 6.26256 2.82322L5.67678 2.23744ZM6.73744 1.17678L6.20711 1.70711L6.73744 1.17678L7.32322 1.76256C7.42086 1.86019 7.57915 1.86019 7.67678 1.76256L8.26256 1.17678C8.94598 0.493358 10.054 0.49336 10.7374 1.17678L11.3232 1.76256C11.4209 1.86019 11.5791 1.86019 11.6768 1.76256L12.2626 1.17678C12.946 0.493358 14.054 0.493359 14.7374 1.17678L15.3232 1.76256C15.4209 1.86019 15.5791 1.86019 15.6768 1.76256L16.2626 1.17678C16.946 0.493358 18.054 0.493361 18.7374 1.17678L19.3232 1.76256C19.4209 1.86019 19.5791 1.8602 19.6768 1.76256L20.2626 1.17678C20.946 0.493357 22.054 0.493361 22.7374 1.17678L23.2501 1.68948C23.2581 1.69742 23.2637 1.69982 23.2677 1.70106C23.2731 1.7027 23.2806 1.70357 23.2894 1.70215C23.2982 1.70072 23.305 1.69751 23.3096 1.69427C23.313 1.69183 23.3176 1.68776 23.3226 1.67771C24.0518 0.219262 26.25 0.738178 26.25 2.36877V35.6312C26.25 37.2618 24.0518 37.7807 23.3226 36.3223C23.3176 36.3122 23.313 36.3082 23.3096 36.3057C23.305 36.3025 23.2982 36.2993 23.2894 36.2979C23.2806 36.2964 23.2731 36.2973 23.2677 36.2989C23.2637 36.3002 23.2581 36.3026 23.2501 36.3105L22.7374 36.8232C22.054 37.5066 20.946 37.5066 20.2626 36.8232L19.6768 36.2374C19.5791 36.1398 19.4209 36.1398 19.3232 36.2374L18.7374 36.8232C18.054 37.5066 16.946 37.5066 16.2626 36.8232L15.6768 36.2374C15.5791 36.1398 15.4209 36.1398 15.3232 36.2374L14.7374 36.8232C14.054 37.5066 12.946 37.5066 12.2626 36.8232L11.6768 36.2374C11.5791 36.1398 11.4209 36.1398 11.3232 36.2374L10.7374 36.8232C10.054 37.5066 8.94598 37.5066 8.26256 36.8232L7.67677 36.2374C7.57914 36.1398 7.42085 36.1398 7.32322 36.2374L6.73743 36.8232C6.05402 37.5066 4.94598 37.5066 4.26256 36.8232L3.85351 36.4142C3.7424 36.3031 3.55681 36.3242 3.47353 36.4574C2.5447 37.9436 0.25 37.2855 0.25 35.5329V2.46706C0.25 0.714536 2.5447 0.0564259 3.47353 1.54256C3.55681 1.6758 3.7424 1.69694 3.85351 1.58583L4.38384 2.11616L3.85351 1.58583L4.26256 1.17678C4.94598 0.493358 6.05402 0.49336 6.73744 1.17678Z" fill="#E76060"/>
</svg>
