<svg width="24" height="24" viewBox="0 0 24 24" fill="none" xmlns="http://www.w3.org/2000/svg">
<path fill-rule="evenodd" clip-rule="evenodd" d="M12 22.5C17.799 22.5 22.5 17.799 22.5 12C22.5 6.20101 17.799 1.5 12 1.5C6.20101 1.5 1.5 6.20101 1.5 12C1.5 17.799 6.20101 22.5 12 22.5ZM12 24C18.6274 24 24 18.6274 24 12C24 5.37258 18.6274 0 12 0C5.37258 0 0 5.37258 0 12C0 18.6274 5.37258 24 12 24Z" fill="#E76060"/>
<path fill-rule="evenodd" clip-rule="evenodd" d="M6.79389 8.34776C6.96397 9.66116 7.65073 11.4943 9.2379 13.3763C10.8137 15.2448 12.7043 16.3552 14.2823 16.8896C15.0734 17.1574 15.7643 17.2732 16.2796 17.2781C16.4976 17.2802 16.6696 17.2623 16.7971 17.2352V15.5259C16.7971 14.969 16.4287 14.4792 15.8936 14.3249L15.087 14.0922C14.7234 13.9873 14.3318 14.0527 14.0221 14.2702L13.2725 14.7966C13.0451 14.9563 12.748 14.9772 12.5005 14.8508C11.502 14.341 10.7993 13.845 10.2309 13.2343C9.66883 12.6304 9.27253 11.9498 8.84676 11.1404C8.71375 10.8875 8.73596 10.5811 8.90404 10.35L9.36696 9.71373C9.60061 9.39255 9.66773 8.97945 9.54778 8.60083L9.23781 7.62247C9.07324 7.103 8.59111 6.75 8.04619 6.75H6.92C6.90265 6.78104 6.87986 6.83075 6.85432 6.90755C6.75921 7.19361 6.70778 7.68277 6.79389 8.34776ZM6.95432 6.70435C6.95469 6.70552 6.95022 6.71152 6.93978 6.71879C6.94872 6.70681 6.95394 6.70317 6.95432 6.70435ZM5.43095 6.43427C5.60467 5.9118 6.02282 5.25 6.81403 5.25H8.04619C9.24501 5.25 10.3057 6.0266 10.6678 7.16944L10.9777 8.14779C11.2416 8.98077 11.094 9.88959 10.5799 10.5962L10.3943 10.8513C10.7104 11.4235 10.9869 11.8449 11.3289 12.2124C11.6772 12.5866 12.1179 12.9302 12.7876 13.3042L13.1601 13.0426C13.8415 12.5642 14.7028 12.4202 15.5027 12.6509L16.3094 12.8836C17.4866 13.2233 18.2971 14.3007 18.2971 15.5259V17.682C18.2971 17.8707 18.226 18.0525 18.098 18.1911C17.8619 18.4465 17.5483 18.5875 17.2564 18.6668C16.9563 18.7484 16.6183 18.7815 16.2651 18.7781C15.5578 18.7712 14.7074 18.6172 13.8012 18.3103C11.9848 17.6953 9.85695 16.437 8.09124 14.3433C6.33686 12.2631 5.51686 10.1663 5.30631 8.54039C5.20211 7.73571 5.24189 7.00283 5.43095 6.43427Z" fill="#E76060"/>
</svg>
