<svg width="161" height="88" viewBox="0 0 161 88" fill="none" xmlns="http://www.w3.org/2000/svg">
<path d="M125.368 44C125.368 68.3005 105.669 88 81.3684 88C57.0679 88 37.3684 68.3005 37.3684 44C37.3684 19.6995 57.0679 0 81.3684 0C105.669 0 125.368 19.6995 125.368 44Z" fill="#E76060"/>
<path fill-rule="evenodd" clip-rule="evenodd" d="M57.9211 37.6316C57.9211 35.5532 59.6059 33.8684 61.6843 33.8684H100.329C109.522 33.8684 116.974 41.3205 116.974 50.5132V51.7434C116.974 61.3757 109.165 69.1842 99.533 69.1842H3.78953C1.71119 69.1842 0.0263672 67.4994 0.0263672 65.4211C0.0263672 63.3427 1.71119 61.6579 3.78953 61.6579H99.533C105.009 61.6579 109.447 57.219 109.447 51.7434V50.5132C109.447 45.4772 105.365 41.3947 100.329 41.3947H61.6843C59.6059 41.3947 57.9211 39.7099 57.9211 37.6316Z" fill="#F4F4F4"/>
<path fill-rule="evenodd" clip-rule="evenodd" d="M103.079 51.5263C103.079 53.6047 101.394 55.2895 99.3157 55.2895L60.671 55.2895C51.4784 55.2895 44.0263 47.8374 44.0263 38.6447L44.0263 37.4145C44.0263 27.7822 51.8348 19.9737 61.4671 19.9737L157.21 19.9737C159.289 19.9737 160.974 21.6585 160.974 23.7369C160.974 25.8152 159.289 27.5 157.21 27.5L61.4671 27.5C55.9914 27.5 51.5526 31.9389 51.5526 37.4145L51.5526 38.6447C51.5526 43.6807 55.635 47.7632 60.671 47.7632L99.3157 47.7632C101.394 47.7632 103.079 49.448 103.079 51.5263Z" fill="#F4F4F4"/>
</svg>
