<svg width="28" height="28" viewBox="0 0 28 28" fill="none" xmlns="http://www.w3.org/2000/svg">
<path fill-rule="evenodd" clip-rule="evenodd" d="M14 26.5C20.9036 26.5 26.5 20.9036 26.5 14C26.5 7.09644 20.9036 1.5 14 1.5C7.09644 1.5 1.5 7.09644 1.5 14C1.5 20.9036 7.09644 26.5 14 26.5ZM14 28C21.732 28 28 21.732 28 14C28 6.26801 21.732 0 14 0C6.26801 0 0 6.26801 0 14C0 21.732 6.26801 28 14 28Z" fill="#E76060"/>
<path fill-rule="evenodd" clip-rule="evenodd" d="M14 8.75C12.7574 8.75 11.75 9.75736 11.75 11C11.75 12.2426 12.7574 13.25 14 13.25C15.2426 13.25 16.25 12.2426 16.25 11C16.25 9.75736 15.2426 8.75 14 8.75ZM10.25 11C10.25 8.92893 11.9289 7.25 14 7.25C16.0711 7.25 17.75 8.92893 17.75 11C17.75 13.0711 16.0711 14.75 14 14.75C11.9289 14.75 10.25 13.0711 10.25 11Z" fill="#E76060"/>
<path fill-rule="evenodd" clip-rule="evenodd" d="M14 17.75C9.99594 17.75 6.75 20.9959 6.75 25H5.25C5.25 20.1675 9.16751 16.25 14 16.25C18.8325 16.25 22.75 20.1675 22.75 25H21.25C21.25 20.9959 18.0041 17.75 14 17.75Z" fill="#E76060"/>
</svg>
