<svg width="51" height="43" viewBox="0 0 51 43" fill="none" xmlns="http://www.w3.org/2000/svg">
<path d="M22.6023 23.2757L26.6021 25.6323C26.9882 25.8663 27.436 26 27.9302 26C28.4244 26 28.934 25.883 29.3819 25.5822L42.9102 16.557C43.4662 16.1893 43.8059 15.5877 43.9604 14.9359C44.0685 14.2673 43.9604 13.5487 43.5743 13.0138C42.8485 11.9275 41.5203 11.6935 40.5165 12.4122L36.0071 15.5041H25.552C24.996 15.5041 24.5018 15.7381 24.1621 16.1726L23.6679 16.7075C23.3899 17.0083 23.3281 17.376 23.3899 17.7938C23.498 18.1615 23.776 18.4623 24.1157 18.5793L29.1194 19.8495L27.7912 20.6852L25.0578 19.9665C24.44 19.7827 23.776 19.9665 23.2818 20.3844L22.4479 21.1699C22.1081 21.4707 22 21.8885 22 22.3064C22 22.7242 22.2625 23.025 22.6023 23.2757ZM24.3319 21.7716C24.3937 21.7047 24.5018 21.6546 24.6099 21.7047L27.7295 22.6072C27.9457 22.6741 28.1773 22.6072 28.3935 22.4902L31.7293 20.2674C32.0073 20.0835 32.1771 19.7325 32.1154 19.3649C32.0536 18.9972 31.8374 18.6963 31.4976 18.6462L26.6021 17.376H36.2233C36.3932 17.376 36.563 17.3091 36.6711 17.259L41.3505 13.9498C41.6284 13.7659 41.9682 13.8328 42.1844 14.1336C42.2925 14.2005 42.2925 14.3676 42.2925 14.5515C42.2307 14.7353 42.1844 14.9191 42.0145 14.9693L28.4862 23.9944C28.1464 24.2284 27.7604 24.2284 27.436 24.0613L24.0385 22.0724L24.3319 21.7716Z" fill="#1C282D"/>
<path d="M50.2381 28.8902H15.1004V13.052H21.8506C22.2925 13.052 22.6734 12.6795 22.6734 12.2474C22.6734 11.8153 22.2925 11.4428 21.8506 11.4428H21.1954V7.09217H21.8506C22.2925 7.09217 22.6734 6.71968 22.6734 6.2876C22.6734 5.85551 22.2925 5.48302 21.8506 5.48302H16.746V5.42342C16.1365 4.29106 14.8871 3.54608 13.3938 3.32259V1.60915C13.8357 1.54955 14.1557 1.23666 14.1557 0.804574C14.1709 0.372488 13.7747 0 13.3481 0H11.87C11.4281 0 11.0472 0.372488 11.0472 0.804574C11.0472 1.23666 11.3824 1.54955 11.8091 1.60915V3.32259C10.331 3.53118 9.06633 4.33576 8.45683 5.46812H3.18464C2.74275 5.46812 2.36182 5.84061 2.36182 6.2727C2.36182 6.70478 2.74275 7.07727 3.18464 7.07727H4.00747V11.4279H3.18464C2.74275 11.4279 2.36182 11.8004 2.36182 12.2325C2.36182 12.6646 2.74275 13.0371 3.18464 13.0371H10.1634V28.8753H0.822826C0.380938 28.8753 0 29.2477 0 29.6798C0 30.1119 0.380938 30.4844 0.822826 30.4844H1.47804V42.1954C1.47804 42.6275 1.85898 43 2.30087 43H48.6991C49.141 43 49.522 42.6275 49.522 42.1954V30.4844H50.1772C50.6191 30.4844 51 30.1119 51 29.6798C51 29.2626 50.7257 28.8902 50.2381 28.8902ZM17.5689 7.09217H19.5955V11.4428H17.5689V7.09217ZM7.84733 11.4279H5.65312V7.09217H7.84733V11.4279ZM3.12369 33.2259H6.30834V38.7089H3.18464H3.12369V33.2259ZM10.1634 41.3908H3.18464V40.3181H10.1634V41.3908V41.3908ZM10.1634 38.7089H7.95399V33.2259H10.1482V38.7089H10.1634ZM10.1634 31.6168H3.18464V30.4844H10.1634V31.6168V31.6168ZM12.571 4.88704C13.3328 4.88704 14.049 5.09563 14.5975 5.48302H10.5444C11.0929 5.09563 11.8091 4.88704 12.571 4.88704ZM9.49298 7.09217H15.9232V11.4428H9.49298V7.09217ZM13.4547 41.3313H11.8091V13.052H13.4547V41.3313ZM47.9373 41.3313H15.1004V40.2585H47.9373V41.3313ZM15.1004 33.2259H19.1688V38.7089H15.1004V33.2259ZM20.8145 33.2259H24.8829V38.7089H20.8145V33.2259ZM26.5133 33.2259H30.5817V38.7089H26.5133V33.2259ZM32.2274 33.2259H36.2958V38.7089H32.2274V33.2259ZM37.9414 33.2259H42.0099V38.7089H37.9414V33.2259ZM47.9373 38.7089H43.6555V33.2259H47.9373V38.7089ZM47.9373 31.6168H15.1004V30.4844H47.9373V31.6168Z" fill="#1C282D"/>
</svg>
