<svg width="40" height="48" viewBox="0 0 40 48" fill="none" xmlns="http://www.w3.org/2000/svg">
<path fill-rule="evenodd" clip-rule="evenodd" d="M2.38039 15.2554C3.72172 13.9141 5.51193 13 7.2 13H14C16.4609 13 18.3726 14.2364 19.7843 15.6077C20.9298 16.7205 21.8269 18.008 22.4462 18.8969C22.5809 19.0903 22.7025 19.2648 22.8107 19.4145C23.477 20.3371 24.7155 22.2082 25.7745 23.8278C26.3069 24.642 26.7984 25.3997 27.1568 25.9537C27.3361 26.2308 27.482 26.457 27.5833 26.614L27.7405 26.8582L27.7411 26.8592C27.9955 27.2549 27.9397 27.7745 27.6071 28.1071L26.5071 29.2071C25.7079 30.0063 24.6383 30.1477 23.7242 29.9844C22.8155 29.8222 21.9321 29.3463 21.2929 28.7071L17 24.4142V48H15V22C15 21.5955 15.2436 21.2309 15.6173 21.0761C15.991 20.9213 16.4211 21.0069 16.7071 21.2929L22.7071 27.2929C23.0679 27.6537 23.5845 27.9278 24.0758 28.0156C24.5617 28.1023 24.8921 27.9937 25.0929 27.7929L25.6221 27.2636C25.5768 27.1935 25.5285 27.1188 25.4776 27.04C25.1203 26.4878 24.6306 25.733 24.1005 24.9222C23.0345 23.2918 21.823 21.4629 21.1893 20.5855C21.055 20.3995 20.9139 20.1976 20.7649 19.9843C20.1433 19.0945 19.3831 18.0063 18.3907 17.0423C17.1774 15.8636 15.7391 15 14 15H7.2C6.18807 15 4.87828 15.5859 3.79461 16.6696C2.72677 17.7374 2 19.1702 2 20.7V27.8C2 28.4236 2.39865 29.2284 3.13536 29.9218C3.86856 30.6119 4.73557 31 5.4 31V33C4.06443 33 2.73144 32.2881 1.76464 31.3782C0.80135 30.4716 0 29.1764 0 27.8V20.7C0 18.5298 1.02322 16.6126 2.38039 15.2554Z" fill="#505050"/>
<path fill-rule="evenodd" clip-rule="evenodd" d="M4 48V21H6V48H4Z" fill="#505050"/>
<path fill-rule="evenodd" clip-rule="evenodd" d="M10 48V32H12V48H10Z" fill="#505050"/>
<path fill-rule="evenodd" clip-rule="evenodd" d="M7.43668 1.38666C8.35412 0.485314 9.61413 0 11 0C12.3859 0 13.6459 0.485314 14.5633 1.38666C15.4835 2.29065 16 3.55539 16 5V7C16 8.44461 15.4835 9.70935 14.5633 10.6133C13.6459 11.5147 12.3859 12 11 12C9.61413 12 8.35412 11.5147 7.43668 10.6133C6.51655 9.70935 6 8.44461 6 7V5C6 3.55539 6.51655 2.29065 7.43668 1.38666ZM8.83832 2.81334C8.33345 3.30935 8 4.04461 8 5V7C8 7.95539 8.33345 8.69065 8.83832 9.18666C9.34588 9.68531 10.0859 10 11 10C11.9141 10 12.6541 9.68531 13.1617 9.18666C13.6666 8.69065 14 7.95539 14 7V5C14 4.04461 13.6666 3.30935 13.1617 2.81334C12.6541 2.31469 11.9141 2 11 2C10.0859 2 9.34588 2.31469 8.83832 2.81334Z" fill="#505050"/>
<path fill-rule="evenodd" clip-rule="evenodd" d="M18 31H39C39.5523 31 40 31.4477 40 32V47C40 47.5523 39.5523 48 39 48H18V46H38V33H18V31Z" fill="#505050"/>
<path fill-rule="evenodd" clip-rule="evenodd" d="M23 32C23 31.4477 23.4477 31 24 31H31C31.5523 31 32 31.4477 32 32V36C32 36.5523 31.5523 37 31 37H24C23.4477 37 23 36.5523 23 36V32ZM25 33V35H30V33H25Z" fill="#505050"/>
<path fill-rule="evenodd" clip-rule="evenodd" d="M34 42H36V44H34V42Z" fill="#505050"/>
<path fill-rule="evenodd" clip-rule="evenodd" d="M31 42H33V44H31V42Z" fill="#505050"/>
</svg>
