<svg width="48" height="37" viewBox="0 0 48 37" fill="none" xmlns="http://www.w3.org/2000/svg">
<path fill-rule="evenodd" clip-rule="evenodd" d="M28.6376 16.932L10.6376 9.932L11.3625 8.06799L29 14.927L46.6376 8.06799L47.3625 9.932L29.3625 16.932C29.1293 17.0227 28.8707 17.0227 28.6376 16.932Z" fill="#505050"/>
<path fill-rule="evenodd" clip-rule="evenodd" d="M37.932 4.63758C38.1322 5.15231 37.8772 5.73186 37.3625 5.93203L19.3625 12.932C18.8477 13.1322 18.2682 12.8772 18.068 12.3625C17.8678 11.8477 18.1228 11.2682 18.6376 11.068L36.6376 4.06802C37.1523 3.86785 37.7319 4.12285 37.932 4.63758Z" fill="#505050"/>
<path fill-rule="evenodd" clip-rule="evenodd" d="M28.6376 0.0679953C28.8707 -0.0226651 29.1293 -0.0226651 29.3624 0.0679953L47.3624 7.068C47.7468 7.21747 48 7.58759 48 8V29C48 29.4124 47.7468 29.7825 47.3624 29.932L29.3624 36.932C29.1293 37.0227 28.8707 37.0227 28.6376 36.932L10.6376 29.932C10.2532 29.7825 10 29.4124 10 29V27H12V28.3159L29 34.927L46 28.3159V8.68407L29 2.07296L12 8.68407V15H10V8C10 7.58759 10.2532 7.21747 10.6376 7.068L28.6376 0.0679953Z" fill="#505050"/>
<path fill-rule="evenodd" clip-rule="evenodd" d="M10 25V22H12V25H10Z" fill="#505050"/>
<path fill-rule="evenodd" clip-rule="evenodd" d="M10 20V17H12V20H10Z" fill="#505050"/>
<path fill-rule="evenodd" clip-rule="evenodd" d="M14 16H0V14H14V16Z" fill="#505050"/>
<path fill-rule="evenodd" clip-rule="evenodd" d="M18 21H6V19H18V21Z" fill="#505050"/>
<path fill-rule="evenodd" clip-rule="evenodd" d="M15 26H3V24H15V26Z" fill="#505050"/>
<path fill-rule="evenodd" clip-rule="evenodd" d="M28 36V16H30V36H28Z" fill="#505050"/>
<path fill-rule="evenodd" clip-rule="evenodd" d="M42 26H44V28H42V26Z" fill="#505050"/>
<path fill-rule="evenodd" clip-rule="evenodd" d="M39 27H41V29H39V27Z" fill="#505050"/>
</svg>
