<svg width="76" height="31" viewBox="0 0 76 31" fill="none" xmlns="http://www.w3.org/2000/svg">
<path d="M52.26 20.5883H51.286V19.883C51.286 19.5807 51.1181 19.312 50.8494 19.1441V0.839653C50.8494 0.369447 50.48 0 50.0097 0H2.25027C1.78006 0 1.41062 0.369447 1.41062 0.839653V19.883C1.41062 20.1853 1.54496 20.4204 1.78006 20.5883H0.839653C0.369447 20.5883 0 20.9577 0 21.428C0 21.8982 0.369447 22.2676 0.839653 22.2676H1.81365V23.2416C1.81365 23.5775 2.01517 23.8797 2.31744 24.0141L5.30661 25.4247C5.03792 25.9285 4.90358 26.4995 4.90358 27.1376C4.90358 29.2535 6.65005 31 8.76598 31C10.2102 31 11.4865 30.1939 12.1246 29.0184C12.7963 30.1939 14.039 31 15.4832 31C17.5991 31 19.3456 29.2535 19.3456 27.1376C19.3456 26.8353 19.312 26.533 19.2449 26.2308H33.5861C33.519 26.533 33.4854 26.8353 33.4854 27.1376C33.4854 29.2535 35.2318 31 37.3478 31C38.792 31 40.0683 30.1939 40.7064 29.0184C41.3781 30.1939 42.6208 31 44.065 31C46.1809 31 47.9274 29.2535 47.9274 27.1376C47.9274 26.6002 47.8266 26.0628 47.6251 25.6262L50.8158 24.0477C51.1181 23.9133 51.286 23.6111 51.286 23.3088V22.3348H52.26C52.7302 22.3348 53.0997 21.9653 53.0997 21.4951C53.0997 21.0249 52.7302 20.5883 52.26 20.5883ZM3.08992 1.67931H49.1701V19.0433H34.4594V5.91116C34.4594 5.44095 34.0899 5.07151 33.6197 5.07151H18.2373C17.7671 5.07151 17.3976 5.44095 17.3976 5.91116V19.0433H3.08992V1.67931ZM32.7801 19.0433H26.9361V6.75081H32.7801V19.0433ZM25.2232 19.0433H19.0769V6.75081H25.2568V19.0433H25.2232ZM8.76598 29.2871C7.55688 29.2871 6.58288 28.3131 6.58288 27.104C6.58288 25.8949 7.55688 24.9209 8.76598 24.9209C9.97508 24.9209 10.9491 25.8949 10.9491 27.104C10.9491 28.3131 9.97508 29.2871 8.76598 29.2871ZM15.5168 29.2871C14.3077 29.2871 13.3337 28.3131 13.3337 27.104C13.3337 25.8949 14.3077 24.9209 15.5168 24.9209C16.7259 24.9209 17.6999 25.8949 17.6999 27.104C17.6999 28.3131 16.7259 29.2871 15.5168 29.2871ZM37.3478 29.2871C36.1387 29.2871 35.1647 28.3131 35.1647 27.104C35.1647 25.8949 36.1387 24.9209 37.3478 24.9209C38.5569 24.9209 39.5309 25.8949 39.5309 27.104C39.4973 28.3131 38.5233 29.2871 37.3478 29.2871ZM44.065 29.2871C42.8559 29.2871 41.8819 28.3131 41.8819 27.104C41.8819 25.8949 42.8559 24.9209 44.065 24.9209C45.2741 24.9209 46.2481 25.8949 46.2481 27.104C46.2481 28.3131 45.2741 29.2871 44.065 29.2871ZM49.6067 22.7378L46.6175 24.2156C45.9458 23.6111 45.039 23.2752 44.065 23.2752C42.6208 23.2752 41.3445 24.0813 40.7064 25.2568C40.0347 24.0813 38.792 23.2752 37.3478 23.2752C36.2058 23.2752 35.1983 23.779 34.493 24.5515H18.3716C17.6663 23.779 16.6587 23.2752 15.5168 23.2752C14.0726 23.2752 12.7963 24.0813 12.1582 25.2568C11.4865 24.0813 10.2438 23.2752 8.79957 23.2752C7.89274 23.2752 7.08667 23.5775 6.44854 24.0813L3.56013 22.7378V20.7562H18.2709H33.6533H49.6403V22.7378H49.6067Z" fill="#34495E"/>
<path fill-rule="evenodd" clip-rule="evenodd" d="M71.2929 4.29289C71.6834 3.90237 72.3166 3.90237 72.7071 4.29289L75.7071 7.29289C76.0976 7.68342 76.0976 8.31658 75.7071 8.70711L64.7071 19.7071C64.3166 20.0976 63.6834 20.0976 63.2929 19.7071L56.2929 12.7071C55.9024 12.3166 55.9024 11.6834 56.2929 11.2929L59.2929 8.29289C59.6834 7.90237 60.3166 7.90237 60.7071 8.29289L64 11.5858L71.2929 4.29289ZM72 6.41421L64.7071 13.7071C64.3166 14.0976 63.6834 14.0976 63.2929 13.7071L60 10.4142L58.4142 12L64 17.5858L73.5858 8L72 6.41421Z" fill="#505050"/>
</svg>
