<svg width="47" height="42" viewBox="0 0 47 42" fill="none" xmlns="http://www.w3.org/2000/svg">
<path fill-rule="evenodd" clip-rule="evenodd" d="M6.4 13.2999C4.92557 13.2999 4 14.2709 4 15.2999V35.2999C4 35.8522 3.55228 36.2999 3 36.2999C2.44772 36.2999 2 35.8522 2 35.2999V15.2999C2 12.9289 4.07443 11.2999 6.4 11.2999H8.6C10.9256 11.2999 13 12.9289 13 15.2999V17.2999C13 17.8522 12.5523 18.2999 12 18.2999C11.4477 18.2999 11 17.8522 11 17.2999V15.2999C11 14.2709 10.0744 13.2999 8.6 13.2999H6.4Z" fill="#363233"/>
<path fill-rule="evenodd" clip-rule="evenodd" d="M4.92376 20.3347C4.67678 19.8407 4.87704 19.24 5.37106 18.993L41.1511 1.10499C41.6451 0.858004 42.2458 1.05827 42.4928 1.55229L46.0704 8.70829C46.3173 9.2023 46.1171 9.803 45.6231 10.05L9.84306 27.938C9.34904 28.185 8.74834 27.9847 8.50136 27.4907L4.92376 20.3347ZM7.15996 20.3348L9.84316 25.7018L43.8342 8.70819L41.151 3.34119L7.15996 20.3348Z" fill="#363233"/>
<path fill-rule="evenodd" clip-rule="evenodd" d="M12.1 15.7999C12.6523 15.7999 13.1 16.2476 13.1 16.7999V25.6999C13.1 26.2522 12.6523 26.6999 12.1 26.6999C11.5477 26.6999 11.1 26.2522 11.1 25.6999V16.7999C11.1 16.2476 11.5477 15.7999 12.1 15.7999Z" fill="#363233"/>
<path fill-rule="evenodd" clip-rule="evenodd" d="M17.5 13.1C18.0523 13.1 18.5 13.5477 18.5 14.1V23C18.5 23.5523 18.0523 24 17.5 24C16.9477 24 16.5 23.5523 16.5 23V14.1C16.5 13.5477 16.9477 13.1 17.5 13.1Z" fill="#363233"/>
<path fill-rule="evenodd" clip-rule="evenodd" d="M22.9 10.4C23.4523 10.4 23.9 10.8477 23.9 11.4V20.3C23.9 20.8523 23.4523 21.3 22.9 21.3C22.3477 21.3 21.9 20.8523 21.9 20.3V11.4C21.9 10.8477 22.3477 10.4 22.9 10.4Z" fill="#363233"/>
<path fill-rule="evenodd" clip-rule="evenodd" d="M28.2 7.69995C28.7522 7.69995 29.2 8.14767 29.2 8.69995V17.7C29.2 18.2522 28.7522 18.7 28.2 18.7C27.6477 18.7 27.2 18.2522 27.2 17.7V8.69995C27.2 8.14767 27.6477 7.69995 28.2 7.69995Z" fill="#363233"/>
<path fill-rule="evenodd" clip-rule="evenodd" d="M33.6 5C34.1523 5 34.6 5.44772 34.6 6V15C34.6 15.5523 34.1523 16 33.6 16C33.0477 16 32.6 15.5523 32.6 15V6C32.6 5.44772 33.0477 5 33.6 5Z" fill="#363233"/>
<path fill-rule="evenodd" clip-rule="evenodd" d="M39 2.29993C39.5523 2.29993 40 2.74764 40 3.29993V12.2999C40 12.8522 39.5523 13.2999 39 13.2999C38.4477 13.2999 38 12.8522 38 12.2999V3.29993C38 2.74764 38.4477 2.29993 39 2.29993Z" fill="#363233"/>
<path fill-rule="evenodd" clip-rule="evenodd" d="M0 35.2999C0 34.7476 0.447715 34.2999 1 34.2999H6C6.55228 34.2999 7 34.7476 7 35.2999C7 35.8522 6.55228 36.2999 6 36.2999H2V39.2999H14V36.2999H10C9.44771 36.2999 9 35.8522 9 35.2999C9 34.7476 9.44771 34.2999 10 34.2999H15C15.5523 34.2999 16 34.7476 16 35.2999V40.2999C16 40.8522 15.5523 41.2999 15 41.2999H1C0.447715 41.2999 0 40.8522 0 40.2999V35.2999Z" fill="#363233"/>
<path fill-rule="evenodd" clip-rule="evenodd" d="M12 24.2999C12.5523 24.2999 13 24.7476 13 25.2999V35.2999C13 35.8522 12.5523 36.2999 12 36.2999C11.4477 36.2999 11 35.8522 11 35.2999V25.2999C11 24.7476 11.4477 24.2999 12 24.2999Z" fill="#363233"/>
</svg>
