<svg width="44" height="48" viewBox="0 0 44 48" fill="none" xmlns="http://www.w3.org/2000/svg">
<path fill-rule="evenodd" clip-rule="evenodd" d="M20.3573 5.23392C20.5837 5.04392 20.8827 4.96385 21.1738 5.01522L38.1738 8.01522C38.4602 8.06576 38.7103 8.23845 38.8592 8.48829C39.008 8.73812 39.0406 9.04036 38.9487 9.31624L38 12.1623V16C38 16.5523 37.5523 17 37 17H22C21.6212 17 21.275 16.786 21.1056 16.4472C20.9362 16.1084 20.9727 15.703 21.2 15.4L23.5495 12.2673C23.3633 12.1102 23.1869 11.941 23.023 11.7714C22.5246 11.2555 22.0335 10.6192 21.6016 9.96135C21.1691 9.30268 20.7802 8.59838 20.4957 7.93785C20.2235 7.306 20 6.60915 20 6.00001C20 5.70439 20.1308 5.42392 20.3573 5.23392ZM22.3821 7.25936C22.6096 7.76649 22.9198 8.32509 23.2734 8.86367C23.654 9.44329 24.0691 9.97572 24.4614 10.3818C24.8801 10.8151 25.1788 11.0055 25.3162 11.0513C25.6212 11.153 25.8587 11.395 25.9545 11.7018C26.0504 12.0087 25.9929 12.3429 25.8 12.6L24 15H36V12C36 11.8925 36.0173 11.7857 36.0513 11.6838L36.6848 9.78336L22.3821 7.25936Z" fill="#505050"/>
<path fill-rule="evenodd" clip-rule="evenodd" d="M37 13H25V11H37V13Z" fill="#505050"/>
<path fill-rule="evenodd" clip-rule="evenodd" d="M23 18.8V16H25V18.8C25 21.6072 27.4109 24 30.5 24C33.5891 24 36 21.6072 36 18.8V16H38V18.8C38 22.7928 34.6109 26 30.5 26C26.3891 26 23 22.7928 23 18.8Z" fill="#505050"/>
<path fill-rule="evenodd" clip-rule="evenodd" d="M24 30C21.2523 30 19 32.2523 19 35V46C19 46.5523 18.5523 47 18 47C17.4477 47 17 46.5523 17 46V35C17 31.1477 20.1477 28 24 28H37C40.8523 28 44 31.1477 44 35V46C44 46.5523 43.5523 47 43 47C42.4477 47 42 46.5523 42 46V35C42 32.2523 39.7477 30 37 30H24Z" fill="#505050"/>
<path fill-rule="evenodd" clip-rule="evenodd" d="M23 36C23.5523 36 24 36.4477 24 37V47C24 47.5523 23.5523 48 23 48C22.4477 48 22 47.5523 22 47V37C22 36.4477 22.4477 36 23 36Z" fill="#505050"/>
<path fill-rule="evenodd" clip-rule="evenodd" d="M38 36C38.5523 36 39 36.4477 39 37V47C39 47.5523 38.5523 48 38 48C37.4477 48 37 47.5523 37 47V37C37 36.4477 37.4477 36 38 36Z" fill="#505050"/>
<path fill-rule="evenodd" clip-rule="evenodd" d="M23.183 45.4233L35.183 28.4233L36.817 29.5767L25.9299 45H38V47H24C23.6264 47 23.284 46.7918 23.1121 46.4601C22.9402 46.1284 22.9676 45.7285 23.183 45.4233Z" fill="#505050"/>
<path fill-rule="evenodd" clip-rule="evenodd" d="M15.6247 25.2192C16.056 25.5642 16.1259 26.1935 15.7809 26.6247L11.7809 31.6247C11.6032 31.8468 11.3393 31.9828 11.0553 31.9985C10.7713 32.0142 10.494 31.9083 10.2929 31.7071L8.29289 29.7071C7.90237 29.3166 7.90237 28.6835 8.29289 28.2929C8.68342 27.9024 9.31658 27.9024 9.70711 28.2929L10.9171 29.5029L14.2191 25.3753C14.5641 24.9441 15.1934 24.8742 15.6247 25.2192Z" fill="#505050"/>
<path fill-rule="evenodd" clip-rule="evenodd" d="M15.6247 16.2192C16.056 16.5642 16.1259 17.1935 15.7809 17.6247L11.7809 22.6247C11.6032 22.8468 11.3393 22.9828 11.0553 22.9985C10.7713 23.0142 10.494 22.9083 10.2929 22.7071L8.29289 20.7071C7.90237 20.3166 7.90237 19.6835 8.29289 19.2929C8.68342 18.9024 9.31658 18.9024 9.70711 19.2929L10.9171 20.5029L14.2191 16.3753C14.5641 15.9441 15.1934 15.8742 15.6247 16.2192Z" fill="#505050"/>
<path fill-rule="evenodd" clip-rule="evenodd" d="M15.6247 7.21917C16.056 7.56418 16.1259 8.19347 15.7809 8.62473L11.7809 13.6247C11.6032 13.8468 11.3393 13.9828 11.0553 13.9985C10.7713 14.0142 10.494 13.9083 10.2929 13.7071L8.29289 11.7071C7.90237 11.3166 7.90237 10.6835 8.29289 10.2929C8.68342 9.90241 9.31658 9.90241 9.70711 10.2929L10.9171 11.5029L14.2191 7.37534C14.5641 6.94408 15.1934 6.87416 15.6247 7.21917Z" fill="#505050"/>
<path fill-rule="evenodd" clip-rule="evenodd" d="M0 0H26V4H24V2H2V38H15V40H0V0Z" fill="#505050"/>
</svg>
