<svg width="54" height="53" viewBox="0 0 54 53" fill="none" xmlns="http://www.w3.org/2000/svg">
<path d="M52.26 42.5883H51.286V41.883C51.286 41.5807 51.1181 41.312 50.8494 41.1441V22.8397C50.8494 22.3694 50.48 22 50.0097 22H2.25027C1.78006 22 1.41062 22.3694 1.41062 22.8397V41.883C1.41062 42.1853 1.54496 42.4204 1.78006 42.5883H0.839653C0.369447 42.5883 0 42.9577 0 43.428C0 43.8982 0.369447 44.2676 0.839653 44.2676H1.81365V45.2416C1.81365 45.5775 2.01517 45.8797 2.31744 46.0141L5.30661 47.4247C5.03792 47.9285 4.90358 48.4995 4.90358 49.1376C4.90358 51.2535 6.65005 53 8.76598 53C10.2102 53 11.4865 52.1939 12.1246 51.0184C12.7963 52.1939 14.039 53 15.4832 53C17.5991 53 19.3456 51.2535 19.3456 49.1376C19.3456 48.8353 19.312 48.533 19.2449 48.2308H33.5861C33.519 48.533 33.4854 48.8353 33.4854 49.1376C33.4854 51.2535 35.2318 53 37.3478 53C38.792 53 40.0683 52.1939 40.7064 51.0184C41.3781 52.1939 42.6208 53 44.065 53C46.1809 53 47.9274 51.2535 47.9274 49.1376C47.9274 48.6002 47.8266 48.0628 47.6251 47.6262L50.8158 46.0477C51.1181 45.9133 51.286 45.6111 51.286 45.3088V44.3348H52.26C52.7302 44.3348 53.0997 43.9653 53.0997 43.4951C53.0997 43.0249 52.7302 42.5883 52.26 42.5883ZM3.08992 23.6793H49.1701V41.0433H34.4594V27.9112C34.4594 27.441 34.0899 27.0715 33.6197 27.0715H18.2373C17.7671 27.0715 17.3976 27.441 17.3976 27.9112V41.0433H3.08992V23.6793ZM32.7801 41.0433H26.9361V28.7508H32.7801V41.0433ZM25.2232 41.0433H19.0769V28.7508H25.2568V41.0433H25.2232ZM8.76598 51.2871C7.55688 51.2871 6.58288 50.3131 6.58288 49.104C6.58288 47.8949 7.55688 46.9209 8.76598 46.9209C9.97508 46.9209 10.9491 47.8949 10.9491 49.104C10.9491 50.3131 9.97508 51.2871 8.76598 51.2871ZM15.5168 51.2871C14.3077 51.2871 13.3337 50.3131 13.3337 49.104C13.3337 47.8949 14.3077 46.9209 15.5168 46.9209C16.7259 46.9209 17.6999 47.8949 17.6999 49.104C17.6999 50.3131 16.7259 51.2871 15.5168 51.2871ZM37.3478 51.2871C36.1387 51.2871 35.1647 50.3131 35.1647 49.104C35.1647 47.8949 36.1387 46.9209 37.3478 46.9209C38.5569 46.9209 39.5309 47.8949 39.5309 49.104C39.4973 50.3131 38.5233 51.2871 37.3478 51.2871ZM44.065 51.2871C42.8559 51.2871 41.8819 50.3131 41.8819 49.104C41.8819 47.8949 42.8559 46.9209 44.065 46.9209C45.2741 46.9209 46.2481 47.8949 46.2481 49.104C46.2481 50.3131 45.2741 51.2871 44.065 51.2871ZM49.6067 44.7378L46.6175 46.2156C45.9458 45.6111 45.039 45.2752 44.065 45.2752C42.6208 45.2752 41.3445 46.0813 40.7064 47.2568C40.0347 46.0813 38.792 45.2752 37.3478 45.2752C36.2058 45.2752 35.1983 45.779 34.493 46.5515H18.3716C17.6663 45.779 16.6587 45.2752 15.5168 45.2752C14.0726 45.2752 12.7963 46.0813 12.1582 47.2568C11.4865 46.0813 10.2438 45.2752 8.79957 45.2752C7.89274 45.2752 7.08667 45.5775 6.44854 46.0813L3.56013 44.7378V42.7562H18.2709H33.6533H49.6403V44.7378H49.6067Z" fill="#34495E"/>
<path fill-rule="evenodd" clip-rule="evenodd" d="M27.9656 10H35.2268L25 21.5052L14.7732 10H21.864C21.4254 8.37058 19.9495 6.76612 17.7711 5.57791C15.1898 4.16989 11.9407 3.54072 9.22723 4.17385L8 4.46021V0.998618L8.78215 0.824031C14.4964 -0.451464 19.2672 -0.190197 22.6615 1.57535C25.8599 3.23903 27.6967 6.16623 27.9656 10ZM13.6303 2.09724C15.4341 2.3766 17.1962 2.98615 18.7289 3.82212C21.6047 5.39079 24 7.95542 24 11V12H19.2268L25 18.4948L30.7732 12H26V11C26 7.32554 24.4675 4.76917 21.7385 3.34967C19.7387 2.30946 17.0159 1.83857 13.6303 2.09724Z" fill="#505050"/>
</svg>
