<svg width="48" height="30" viewBox="0 0 48 30" fill="none" xmlns="http://www.w3.org/2000/svg">
<path fill-rule="evenodd" clip-rule="evenodd" d="M6.4 2C4.92557 2 4 2.971 4 4V24C4 24.5523 3.55228 25 3 25C2.44772 25 2 24.5523 2 24V4C2 1.629 4.07443 0 6.4 0H8.6C10.9256 0 13 1.629 13 4V6C13 6.55228 12.5523 7 12 7C11.4477 7 11 6.55228 11 6V4C11 2.971 10.0744 2 8.6 2H6.4Z" fill="#505050"/>
<path fill-rule="evenodd" clip-rule="evenodd" d="M6 6C6 5.44772 6.44772 5 7 5H47C47.5523 5 48 5.44772 48 6V14C48 14.5523 47.5523 15 47 15H7C6.44772 15 6 14.5523 6 14V6ZM8 7V13H46V7H8Z" fill="#505050"/>
<path fill-rule="evenodd" clip-rule="evenodd" d="M14.4472 5.10555C14.9412 5.35254 15.1414 5.95321 14.8944 6.44719L10.8944 14.4472C10.6474 14.9412 10.0467 15.1414 9.55276 14.8944C9.05878 14.6474 8.85856 14.0467 9.10555 13.5528L13.1055 5.55276C13.3525 5.05878 13.9532 4.85856 14.4472 5.10555Z" fill="#505050"/>
<path fill-rule="evenodd" clip-rule="evenodd" d="M20.4472 5.10555C20.9412 5.35254 21.1414 5.95321 20.8944 6.44719L16.8944 14.4472C16.6474 14.9412 16.0467 15.1414 15.5528 14.8944C15.0588 14.6474 14.8586 14.0467 15.1055 13.5528L19.1055 5.55276C19.3525 5.05878 19.9532 4.85856 20.4472 5.10555Z" fill="#505050"/>
<path fill-rule="evenodd" clip-rule="evenodd" d="M26.4472 5.10555C26.9412 5.35254 27.1414 5.95321 26.8944 6.44719L22.8944 14.4472C22.6474 14.9412 22.0467 15.1414 21.5528 14.8944C21.0588 14.6474 20.8586 14.0467 21.1055 13.5528L25.1055 5.55276C25.3525 5.05878 25.9532 4.85856 26.4472 5.10555Z" fill="#505050"/>
<path fill-rule="evenodd" clip-rule="evenodd" d="M32.4472 5.10555C32.9412 5.35254 33.1414 5.95321 32.8944 6.44719L28.8944 14.4472C28.6474 14.9412 28.0467 15.1414 27.5528 14.8944C27.0588 14.6474 26.8586 14.0467 27.1055 13.5528L31.1055 5.55276C31.3525 5.05878 31.9532 4.85856 32.4472 5.10555Z" fill="#505050"/>
<path fill-rule="evenodd" clip-rule="evenodd" d="M38.4472 5.10555C38.9412 5.35254 39.1414 5.95321 38.8944 6.44719L34.8944 14.4472C34.6474 14.9412 34.0467 15.1414 33.5528 14.8944C33.0588 14.6474 32.8586 14.0467 33.1055 13.5528L37.1055 5.55276C37.3525 5.05878 37.9532 4.85856 38.4472 5.10555Z" fill="#505050"/>
<path fill-rule="evenodd" clip-rule="evenodd" d="M44.4472 5.10555C44.9412 5.35254 45.1414 5.95321 44.8944 6.44719L40.8944 14.4472C40.6474 14.9412 40.0467 15.1414 39.5528 14.8944C39.0588 14.6474 38.8586 14.0467 39.1055 13.5528L43.1055 5.55276C43.3525 5.05878 43.9532 4.85856 44.4472 5.10555Z" fill="#505050"/>
<path fill-rule="evenodd" clip-rule="evenodd" d="M0 24C0 23.4477 0.447715 23 1 23H6C6.55228 23 7 23.4477 7 24C7 24.5523 6.55228 25 6 25H2V28H14V25H10C9.44771 25 9 24.5523 9 24C9 23.4477 9.44771 23 10 23H15C15.5523 23 16 23.4477 16 24V29C16 29.5523 15.5523 30 15 30H1C0.447715 30 0 29.5523 0 29V24Z" fill="#505050"/>
<path fill-rule="evenodd" clip-rule="evenodd" d="M12 13C12.5523 13 13 13.4477 13 14V24C13 24.5523 12.5523 25 12 25C11.4477 25 11 24.5523 11 24V14C11 13.4477 11.4477 13 12 13Z" fill="#505050"/>
</svg>
