<svg width="73" height="73" viewBox="0 0 73 73" fill="none" xmlns="http://www.w3.org/2000/svg">
<path fill-rule="evenodd" clip-rule="evenodd" d="M13.0482 18.2335C13.464 18.0949 13.9216 18.2432 14.177 18.5994L19.1975 25.5997L17.5723 26.7653L12.9814 20.3639L11.6662 20.8023L13.3916 25.8596L11.4988 26.5054L9.44814 20.495C9.36211 20.2428 9.38026 19.9668 9.49858 19.728C9.61689 19.4893 9.82558 19.3077 10.0783 19.2234L13.0482 18.2335Z" fill="#505050"/>
<path fill-rule="evenodd" clip-rule="evenodd" d="M13.0499 37.9998L17.5656 31.5487L19.2041 32.6956L14.2544 39.7667C13.9976 40.1334 13.5284 40.2849 13.1058 40.1374L10.0652 39.0768C9.54884 38.8966 9.27295 38.3351 9.44589 37.8163L11.4258 31.8766L13.3232 32.5091L11.6551 37.5132L13.0499 37.9998Z" fill="#505050"/>
<path fill-rule="evenodd" clip-rule="evenodd" d="M26.1238 4.82302C26.4231 4.85376 26.6927 5.01763 26.8578 5.26919L40.0806 25.4217L38.4085 26.5189L25.8598 7.39389L25.1637 8.08991L28.1859 18.7684C28.211 18.857 28.2237 18.9486 28.2237 19.0407L28.2237 25.9703L26.2237 25.9703L26.2237 19.1795L23.0796 8.07001C22.9809 7.72142 23.0785 7.34674 23.3347 7.09058L25.3146 5.11068C25.5273 4.89793 25.8245 4.79227 26.1238 4.82302Z" fill="#505050"/>
<path fill-rule="evenodd" clip-rule="evenodd" d="M25.8597 50.9108L38.4084 31.7857L40.0806 32.8829L26.8577 53.0355C26.6927 53.287 26.4231 53.4509 26.1238 53.4816C25.8245 53.5124 25.5273 53.4067 25.3145 53.194L23.3346 51.2141C23.0776 50.9571 22.9803 50.5808 23.0804 50.2314L26.2237 39.2649V32.3343L28.2237 32.3343L28.2237 39.4054C28.2237 39.4986 28.2107 39.5913 28.185 39.6809L25.1653 50.2163L25.8597 50.9108Z" fill="#505050"/>
<path fill-rule="evenodd" clip-rule="evenodd" d="M56.0624 27.0138C56.6929 27.4424 57.3566 28.1194 57.3566 29.0816C57.3566 30.0344 56.7091 30.7156 56.0821 31.1527C55.4275 31.609 54.5641 31.9688 53.6414 32.2484C51.7844 32.8111 49.44 33.1222 47.3763 33.1222L20.3732 33.1222C18.2163 33.158 15.1435 32.904 12.5911 32.3863C11.3196 32.1284 10.1175 31.7934 9.20997 31.3665C8.75856 31.1542 8.32433 30.8937 7.98943 30.5655C7.65022 30.233 7.34401 29.7584 7.34401 29.1524C7.34401 28.5419 7.65559 28.0668 7.99816 27.7365C8.33617 27.4105 8.77377 27.1535 9.22742 26.9447C10.1398 26.5247 11.3476 26.1971 12.6217 25.9441C15.183 25.4355 18.2524 25.1827 20.3621 25.1825C20.363 25.1825 20.3639 25.1825 20.3648 25.1825L47.3711 25.0411L47.3945 25.0413C49.4111 25.0779 51.748 25.3879 53.6091 25.9397C54.5333 26.2137 55.4024 26.5653 56.0624 27.0138ZM47.3697 27.0411L20.3701 27.1825L20.3648 27.1825C18.3735 27.1825 15.4339 27.4247 13.0112 27.9058C11.7928 28.1478 10.7644 28.4389 10.0636 28.7614C9.73294 28.9137 9.52495 29.0507 9.40866 29.1555C9.52381 29.2618 9.73089 29.4013 10.0612 29.5567C10.7557 29.8834 11.7766 30.1803 12.9887 30.4262C15.4004 30.9154 18.3333 31.1565 20.3479 31.1224L20.3648 31.1222L47.3763 31.1222C49.2724 31.1222 51.4182 30.8323 53.0613 30.3343C53.8887 30.0836 54.5279 29.7981 54.9384 29.512C55.1412 29.3706 55.2545 29.2521 55.3117 29.1697C55.3387 29.1309 55.3495 29.1054 55.3535 29.0937C55.3549 29.0896 55.3556 29.0868 55.356 29.085C55.3496 29.0602 55.2984 28.9128 54.9382 28.668C54.522 28.3851 53.8753 28.1047 53.0406 27.8572C51.3873 27.367 49.2395 27.0762 47.3697 27.0411ZM9.32664 29.0638C9.32672 29.0638 9.32746 29.065 9.32859 29.0673C9.32712 29.065 9.32655 29.0638 9.32664 29.0638ZM9.32695 29.243C9.32576 29.2454 9.32499 29.2466 9.3249 29.2466C9.32482 29.2466 9.3254 29.2454 9.32695 29.243Z" fill="#505050"/>
<path fill-rule="evenodd" clip-rule="evenodd" d="M58.2929 37.2929C58.6834 36.9024 59.3166 36.9024 59.7071 37.2929L62.7071 40.2929C63.0976 40.6834 63.0976 41.3166 62.7071 41.7071L51.7071 52.7071C51.3166 53.0976 50.6834 53.0976 50.2929 52.7071L43.2929 45.7071C42.9024 45.3166 42.9024 44.6834 43.2929 44.2929L46.2929 41.2929C46.6834 40.9024 47.3166 40.9024 47.7071 41.2929L51 44.5858L58.2929 37.2929ZM59 39.4142L51.7071 46.7071C51.3166 47.0976 50.6834 47.0976 50.2929 46.7071L47 43.4142L45.4142 45L51 50.5858L60.5858 41L59 39.4142Z" fill="#505050"/>
</svg>
