<svg width="72" height="45" viewBox="0 0 72 45" fill="none" xmlns="http://www.w3.org/2000/svg">
<path fill-rule="evenodd" clip-rule="evenodd" d="M15.6763 33.9694C15.1811 33.3408 14.5005 32.9353 13.7161 32.9129C12.9389 32.8907 12.2364 33.2494 11.6929 33.7929L11.6743 33.8115L9.87626 35.8093C9.62789 36.0511 9.43678 36.0906 9.34105 36.0879C9.2574 36.0855 9.09301 36.0479 8.88934 35.7861L8.88078 35.7751L7.48007 34.0742C7.00202 33.4648 6.34498 33.0323 5.57289 32.9661C4.78648 32.8987 4.05898 33.2268 3.49288 33.7929L3.47706 33.8087L0.261963 37.3252L1.73802 38.6748L4.92102 35.1934C5.14785 34.9723 5.31527 34.9514 5.40209 34.9588C5.5 34.9672 5.68946 35.0296 5.91064 35.3139L5.9192 35.3249L7.31996 37.0259C7.81554 37.6572 8.49753 38.0646 9.28393 38.0871C10.0611 38.1093 10.7636 37.7506 11.3071 37.2071L11.3257 37.1885L13.1237 35.1907C13.3721 34.9489 13.5632 34.9094 13.6589 34.9121C13.7426 34.9145 13.907 34.9521 14.1106 35.2139L14.1226 35.2293L15.7237 37.1307C16.2324 37.7757 16.9523 38.175 17.75 38.175C18.5477 38.175 19.2676 37.7757 19.7763 37.1307L21.3342 35.2806C21.5758 35.0495 21.7728 35 21.8875 35C21.9963 35 22.159 35.0432 22.3474 35.2585L24.1525 37.2643C24.6768 37.8604 25.4011 38.2087 26.1778 38.1871C26.955 38.1655 27.6674 37.7772 28.178 37.1284L29.6595 35.3506C29.8659 35.118 30.0515 35.0551 30.1695 35.0484C30.2774 35.0422 30.457 35.0746 30.6849 35.2992L32.5838 37.298L32.5929 37.3071C33.159 37.8732 33.8865 38.2012 34.6729 38.1338C35.45 38.0672 36.1105 37.6296 36.5893 37.0139L37.8893 35.3139C37.8901 35.313 37.8908 35.3121 37.8915 35.3111C38.1118 35.0291 38.3003 34.9672 38.3979 34.9588C38.4859 34.9513 38.6568 34.9729 38.8885 35.2027L42.2827 38.6968L43.7173 37.3032L40.3122 33.798L40.3071 33.7929C39.741 33.2268 39.0135 32.8987 38.2271 32.9661C37.45 33.0328 36.7895 33.4704 36.3106 34.0861L35.0106 35.7861C35.0099 35.787 35.0092 35.7879 35.0084 35.7889C34.7882 36.0708 34.5997 36.1328 34.5021 36.1411C34.4145 36.1487 34.2449 36.1273 34.015 35.9008L32.1162 33.902L32.1071 33.8929C31.5388 33.3246 30.8214 33.0079 30.0554 33.0516C29.2998 33.0948 28.6383 33.4805 28.1474 34.0415L28.1395 34.0506L26.621 35.8728L26.6106 35.8861C26.422 36.1286 26.2392 36.1846 26.1222 36.1879C26.0014 36.1912 25.8278 36.1418 25.6526 35.9415L23.8475 33.9358C23.3365 33.3545 22.6512 33 21.8875 33C21.1314 33 20.439 33.3468 19.8929 33.8929L19.8626 33.9231L18.2226 35.8707L18.2106 35.8861C18.02 36.1312 17.8454 36.175 17.75 36.175C17.6546 36.175 17.48 36.1312 17.2893 35.8861L17.2774 35.8707L15.6763 33.9694Z" fill="#505050"/>
<path fill-rule="evenodd" clip-rule="evenodd" d="M15.6763 39.9694C15.1811 39.3408 14.5005 38.9353 13.7161 38.9129C12.9389 38.8907 12.2364 39.2494 11.6929 39.7929L11.6743 39.8115L9.87626 41.8093C9.62789 42.0511 9.43678 42.0906 9.34105 42.0879C9.2574 42.0855 9.09301 42.0479 8.88934 41.7861L8.88078 41.7751L7.48007 40.0742C7.00202 39.4648 6.34498 39.0323 5.57289 38.9661C4.78648 38.8987 4.05898 39.2268 3.49288 39.7929L3.47706 39.8087L0.261963 43.3252L1.73802 44.6748L4.92102 41.1934C5.14785 40.9723 5.31527 40.9514 5.40209 40.9588C5.5 40.9672 5.68946 41.0296 5.91064 41.3139L5.9192 41.3249L7.31996 43.0259C7.81554 43.6572 8.49753 44.0646 9.28393 44.0871C10.0611 44.1093 10.7636 43.7506 11.3071 43.2071L11.3257 43.1885L13.1237 41.1907C13.3721 40.9489 13.5632 40.9094 13.6589 40.9121C13.7426 40.9145 13.907 40.9521 14.1106 41.2139L14.1226 41.2293L15.7237 43.1307C16.2324 43.7757 16.9523 44.175 17.75 44.175C18.5477 44.175 19.2676 43.7757 19.7763 43.1307L21.3342 41.2806C21.5758 41.0495 21.7728 41 21.8875 41C21.9963 41 22.159 41.0432 22.3474 41.2585L24.1525 43.2643C24.6768 43.8604 25.4011 44.2087 26.1778 44.1871C26.955 44.1655 27.6674 43.7772 28.178 43.1284L29.6595 41.3506C29.8659 41.118 30.0515 41.0551 30.1695 41.0484C30.2774 41.0422 30.457 41.0746 30.6849 41.2992L32.5838 43.298L32.5929 43.3071C33.159 43.8732 33.8865 44.2012 34.6729 44.1338C35.45 44.0672 36.1105 43.6296 36.5893 43.0139L37.8893 41.3139C37.8901 41.313 37.8908 41.3121 37.8915 41.3111C38.1118 41.0291 38.3003 40.9672 38.3979 40.9588C38.4859 40.9513 38.6568 40.9729 38.8885 41.2027L42.2827 44.6968L43.7173 43.3032L40.3122 39.798L40.3071 39.7929C39.741 39.2268 39.0135 38.8987 38.2271 38.9661C37.45 39.0328 36.7895 39.4704 36.3106 40.0861L35.0106 41.7861C35.0099 41.787 35.0092 41.7879 35.0084 41.7889C34.7882 42.0708 34.5997 42.1328 34.5021 42.1411C34.4145 42.1487 34.2449 42.1273 34.015 41.9008L32.1162 39.902L32.1071 39.8929C31.5388 39.3246 30.8214 39.0079 30.0554 39.0516C29.2998 39.0948 28.6383 39.4805 28.1474 40.0415L28.1395 40.0506L26.621 41.8728L26.6106 41.8861C26.422 42.1286 26.2392 42.1846 26.1222 42.1879C26.0014 42.1912 25.8278 42.1418 25.6526 41.9415L23.8475 39.9358C23.3365 39.3545 22.6512 39 21.8875 39C21.1314 39 20.439 39.3468 19.8929 39.8929L19.8626 39.9231L18.2226 41.8707L18.2106 41.8861C18.02 42.1312 17.8454 42.175 17.75 42.175C17.6546 42.175 17.48 42.1312 17.2893 41.8861L17.2774 41.8707L15.6763 39.9694Z" fill="#505050"/>
<path fill-rule="evenodd" clip-rule="evenodd" d="M14 5H30V9H34V17H32V11H28V7H16V11H12V17H10V9H14V5Z" fill="#505050"/>
<path fill-rule="evenodd" clip-rule="evenodd" d="M18 0H26V6H24V2H20V6H18V0Z" fill="#505050"/>
<path fill-rule="evenodd" clip-rule="evenodd" d="M22 11.9849L22.172 12.0149C25.4655 12.59 29.8221 14.3934 33.2847 16.006C35.0316 16.8196 36.5789 17.5979 37.6894 18.1729C38.245 18.4605 38.6918 18.6975 39.0005 18.863C39.1548 18.9458 39.2746 19.0107 39.3562 19.0551L39.4496 19.106L39.4739 19.1194L39.4821 19.1239C39.4822 19.124 39.4828 19.1243 39 20L39.4821 19.1239L40.1621 19.4988L39.9683 20.2499C39.5604 21.8305 38.5514 25.1081 37.6539 27.9624C37.2033 29.3958 36.7778 30.7318 36.4649 31.7095C36.3085 32.1983 36.1802 32.5977 36.091 32.8749L35.9517 33.3071C35.9516 33.3072 35.9515 33.3076 35 33C34.0485 32.6924 34.0485 32.6924 34.0485 32.6923L34.049 32.6907L34.1871 32.2622C34.276 31.9859 34.404 31.5876 34.5601 31.0999C34.8722 30.1244 35.2967 28.7917 35.746 27.3626C36.519 24.9042 37.3568 22.1878 37.8277 20.504C37.5483 20.3553 37.1912 20.1671 36.7699 19.949C35.6773 19.3833 34.1558 18.6179 32.4403 17.819C29.0435 16.2371 24.9911 14.5743 22 14.0162C19.0088 14.5743 14.9565 16.2371 11.5597 17.819C9.84414 18.6179 8.32266 19.3833 7.23006 19.949C6.80882 20.1671 6.45171 20.3553 6.17222 20.504C6.64319 22.1878 7.481 24.9042 8.25395 27.3626C8.70329 28.7917 9.12775 30.1244 9.43991 31.0999C9.59597 31.5876 9.72393 31.9859 9.81285 32.2622L9.95138 32.692C9.9514 32.6921 9.95151 32.6924 8.99999 33C8.04846 33.3076 8.04844 33.3075 8.04842 33.3074L7.909 32.8749C7.81979 32.5977 7.6915 32.1983 7.53506 31.7095C7.22222 30.7318 6.79668 29.3958 6.34603 27.9624C5.44859 25.1081 4.43962 21.8305 4.03171 20.2499L3.83789 19.4988L4.51712 19.1243L4.99999 20C4.51712 19.1243 4.51697 19.1244 4.51712 19.1243L4.52608 19.1194L4.5504 19.106L4.64372 19.0551C4.72534 19.0107 4.84517 18.9458 4.99951 18.863C5.30816 18.6975 5.75502 18.4605 6.31053 18.1729C7.42106 17.5979 8.96833 16.8196 10.7153 16.006C14.1779 14.3934 18.5345 12.59 21.828 12.0149L22 11.9849Z" fill="#505050"/>
<path fill-rule="evenodd" clip-rule="evenodd" d="M21 29V13H23V29H21Z" fill="#505050"/>
<path fill-rule="evenodd" clip-rule="evenodd" d="M18 21H16V19H18V21Z" fill="#505050"/>
<path fill-rule="evenodd" clip-rule="evenodd" d="M49 26C48.4477 26 48 25.5523 48 25V21C48 20.4477 48.4477 20 49 20H61V15C61 14.6062 61.2311 14.2491 61.5903 14.0877C61.9496 13.9264 62.37 13.991 62.6644 14.2526L71.6644 22.2526C71.8779 22.4423 72 22.7143 72 23C72 23.2856 71.8779 23.5576 71.6644 23.7474L62.6644 31.7474C62.37 32.009 61.9496 32.0735 61.5903 31.9122C61.2311 31.7509 61 31.3938 61 31V26H49ZM50 24H62C62.5523 24 63 24.4477 63 25V28.7731L69.4948 23L63 17.2268V21C63 21.5523 62.5523 22 62 22H50V24Z" fill="#505050"/>
</svg>
