<svg width="34" height="48" viewBox="0 0 34 48" fill="none" xmlns="http://www.w3.org/2000/svg">
<path fill-rule="evenodd" clip-rule="evenodd" d="M22.6427 0.233919C22.8692 0.423922 23 0.704391 23 1.00001C23 1.60915 22.7765 2.306 22.5043 2.93785C22.2198 3.59838 21.8309 4.30268 21.3984 4.96135C20.9665 5.61922 20.4754 6.25554 19.977 6.77138C19.8131 6.94101 19.6367 7.11018 19.4505 7.26729L21.8 10.4C22.0273 10.703 22.0638 11.1084 21.8944 11.4472C21.725 11.786 21.3788 12 21 12H6C5.44772 12 5 11.5523 5 11V7.16229L4.05132 4.31624C3.95936 4.04036 3.99204 3.73812 4.14085 3.48829C4.28966 3.23845 4.53985 3.06576 4.82622 3.01522L21.8262 0.0152244C22.1173 -0.0361496 22.4163 0.0439154 22.6427 0.233919ZM6.31521 4.78336L6.94869 6.68378C6.98267 6.78575 7 6.89253 7 7.00001V10H19L17.2 7.60001C17.0071 7.34285 16.9496 7.00866 17.0455 6.70184C17.1413 6.39502 17.3788 6.15297 17.6838 6.05132C17.8212 6.0055 18.1199 5.81514 18.5386 5.38176C18.9309 4.97572 19.346 4.44329 19.7266 3.86367C20.0802 3.32509 20.3904 2.76649 20.6179 2.25936L6.31521 4.78336Z" fill="#505050"/>
<path fill-rule="evenodd" clip-rule="evenodd" d="M6 6H18V8H6V6Z" fill="#505050"/>
<path fill-rule="evenodd" clip-rule="evenodd" d="M7 11V13.8C7 16.6072 9.41086 19 12.5 19C15.5891 19 18 16.6072 18 13.8V11H20V13.8C20 17.7928 16.6109 21 12.5 21C8.38914 21 5 17.7928 5 13.8V11H7Z" fill="#505050"/>
<path fill-rule="evenodd" clip-rule="evenodd" d="M7 28H34V45H21V43H32V30H9V35H7V28Z" fill="#505050"/>
<path fill-rule="evenodd" clip-rule="evenodd" d="M16 29H18V32H23V29H25V34H16V29Z" fill="#505050"/>
<path fill-rule="evenodd" clip-rule="evenodd" d="M28 39H30V41H28V39Z" fill="#505050"/>
<path fill-rule="evenodd" clip-rule="evenodd" d="M25 39H27V41H25V39Z" fill="#505050"/>
<path fill-rule="evenodd" clip-rule="evenodd" d="M7 25C4.25228 25 2 27.2523 2 30V39C2 40.2728 2.41989 41.2557 3.08211 41.9179C3.74433 42.5801 4.72725 43 6 43H18V39.9258C17.9935 39.9198 17.9834 39.9119 17.9692 39.9041C17.9562 39.897 17.9413 39.8906 17.9249 39.8858L7.77357 38.592C7.22572 38.5222 6.8382 38.0214 6.90802 37.4736C6.97785 36.9257 7.47858 36.5382 8.02643 36.608L18.2615 37.9125L18.2961 37.9194C19.1554 38.0913 20 38.821 20 39.9V43C20 43.5272 19.8199 44.0443 19.4321 44.4321C19.0443 44.8199 18.5272 45 18 45H6C4.27275 45 2.75567 44.4199 1.66789 43.3321C0.580114 42.2443 0 40.7272 0 39V30C0 26.1477 3.14772 23 7 23H19.5C21.4195 23 23.1089 23.8514 24.2926 25.3903C24.6294 25.828 24.5475 26.4559 24.1097 26.7926C23.672 27.1294 23.0441 27.0475 22.7074 26.6097C21.8911 25.5486 20.7805 25 19.5 25H7Z" fill="#505050"/>
<path fill-rule="evenodd" clip-rule="evenodd" d="M4 48V44H6V48H4Z" fill="#505050"/>
<path fill-rule="evenodd" clip-rule="evenodd" d="M22 48V44H24V48H22Z" fill="#505050"/>
</svg>
