<svg width="47" height="48" viewBox="0 0 47 48" fill="none" xmlns="http://www.w3.org/2000/svg">
<path fill-rule="evenodd" clip-rule="evenodd" d="M0 22L8 14L9.41421 15.4142L1.41421 23.4142L0 22Z" fill="#505050"/>
<path fill-rule="evenodd" clip-rule="evenodd" d="M23 46L31 38L32.4142 39.4142L24.4142 47.4142L23 46Z" fill="#505050"/>
<path fill-rule="evenodd" clip-rule="evenodd" d="M6.3128 24.6599C6.50881 24.2679 6.93727 24.0492 7.36974 24.1204L15.8697 25.5204L15.5447 27.4938L7.77201 26.2136L7.14887 27.4599L11.8544 29.8127L10.96 31.6015L5.36001 28.8015C4.86603 28.5545 4.66581 27.9539 4.9128 27.4599L6.3128 24.6599Z" fill="#505050"/>
<path fill-rule="evenodd" clip-rule="evenodd" d="M20.2006 38.6423L18.9203 30.8696L20.8938 30.5446L22.2938 39.0446C22.365 39.477 22.1463 39.9055 21.7543 40.1015L18.9543 41.5015C18.4603 41.7485 17.8596 41.5483 17.6126 41.0543L14.8126 35.4543L16.6015 34.5599L18.9543 39.2654L20.2006 38.6423Z" fill="#505050"/>
<path fill-rule="evenodd" clip-rule="evenodd" d="M6.076 5.9315C6.30938 5.74161 6.61585 5.66688 6.91044 5.72804L30.5104 10.628L30.1039 12.5863L7.70715 7.93612V8.92044L17.395 14.3342C17.4754 14.3791 17.5491 14.4349 17.6143 14.5001L22.5143 19.4001L21.1 20.8143L16.2982 16.0124L6.21933 10.3801C5.90309 10.2034 5.70715 9.86944 5.70715 9.50716V6.70716C5.70715 6.40629 5.84262 6.1214 6.076 5.9315Z" fill="#505050"/>
<path fill-rule="evenodd" clip-rule="evenodd" d="M38.4783 38.7071L33.8281 16.3104L35.7863 15.9038L40.6863 39.5038C40.7475 39.7984 40.6728 40.1049 40.4829 40.3383C40.293 40.5716 40.0081 40.7071 39.7072 40.7071H36.9072C36.5465 40.7071 36.2137 40.5128 36.0363 40.1986L30.401 30.2131L25.593 25.307L27.0214 23.9072L31.9214 28.9072C31.9825 28.9695 32.0352 29.0396 32.0781 29.1156L37.4911 38.7071H38.4783Z" fill="#505050"/>
<path fill-rule="evenodd" clip-rule="evenodd" d="M43.0348 0.454933C43.7851 0.310013 44.7336 0.31921 45.4143 0.999991C46.0951 1.68077 46.1043 2.62927 45.9594 3.37956C45.8078 4.16457 45.4378 5.02839 44.9708 5.87678C44.0307 7.58488 42.5696 9.45898 41.1143 10.9142L22.0203 30.0083C20.5204 31.5587 18.168 33.552 15.9972 34.9907C14.9156 35.7074 13.8288 36.3205 12.8852 36.6604C12.4159 36.8295 11.9247 36.9523 11.4557 36.957C10.9808 36.9618 10.4287 36.8428 10.0001 36.4142C9.56846 35.9825 9.45286 35.4263 9.4615 34.9505C9.47003 34.481 9.59768 33.9898 9.77082 33.5214C10.119 32.5793 10.7414 31.4936 11.4634 30.4138C12.9156 28.242 14.9082 25.8919 16.4001 24.4L35.5001 5.29999C36.9554 3.84476 38.8295 2.38364 40.5376 1.44353C41.386 0.976581 42.2498 0.606562 43.0348 0.454933ZM41.5019 3.19567C39.985 4.03055 38.2591 5.36943 36.9143 6.7142L17.8143 25.8142C16.4062 27.2223 14.4989 29.4722 13.126 31.5254C12.4355 32.5581 11.9142 33.4912 11.6468 34.2147C11.5206 34.5562 11.4704 34.8001 11.4622 34.9565C11.6189 34.9503 11.864 34.9025 12.2074 34.7788C12.9294 34.5187 13.8613 34.0068 14.8923 33.3235C16.9436 31.9641 19.1879 30.0608 20.5882 28.6121L20.6001 28.6L39.7001 9.49999C41.0449 8.15522 42.3838 6.42932 43.2187 4.91242C43.6392 4.14831 43.9005 3.49337 43.9957 3.00026C44.0747 2.59123 44.0154 2.44571 43.9991 2.41525C43.9686 2.3989 43.8231 2.33963 43.4141 2.41864C42.921 2.51388 42.266 2.77511 41.5019 3.19567ZM11.3394 34.9496C11.3395 34.9496 11.3409 34.9499 11.3433 34.9508C11.3406 34.9501 11.3394 34.9497 11.3394 34.9496ZM11.4664 35.0761C11.4672 35.0787 11.4675 35.0801 11.4675 35.0801C11.4674 35.0802 11.467 35.0789 11.4664 35.0761Z" fill="#505050"/>
<path fill-rule="evenodd" clip-rule="evenodd" d="M24.0001 35L28.0001 31L29.4143 32.4142L25.4143 36.4142L24.0001 35Z" fill="#505050"/>
<path fill-rule="evenodd" clip-rule="evenodd" d="M16.0001 5L21.0001 0L22.4143 1.41421L17.4143 6.41421L16.0001 5Z" fill="#505050"/>
</svg>
