<svg width="40" height="48" viewBox="0 0 40 48" fill="none" xmlns="http://www.w3.org/2000/svg">
<path fill-rule="evenodd" clip-rule="evenodd" d="M37.6196 15.2554C36.2783 13.9141 34.4881 13 32.8 13H26C23.5391 13 21.6274 14.2364 20.2157 15.6077C19.0702 16.7205 18.1731 18.008 17.5538 18.8969C17.4191 19.0903 17.2975 19.2648 17.1893 19.4145C16.523 20.3371 15.2845 22.2082 14.2255 23.8278C13.6931 24.642 13.2016 25.3997 12.8432 25.9537C12.6639 26.2308 12.518 26.457 12.4167 26.614L12.2595 26.8582L12.2589 26.8592C12.0045 27.2549 12.0603 27.7745 12.3929 28.1071L13.4929 29.2071C14.2921 30.0063 15.3617 30.1477 16.2758 29.9844C17.1845 29.8222 18.0679 29.3463 18.7071 28.7071L23 24.4142L23 48H25L25 22C25 21.5955 24.7564 21.2309 24.3827 21.0761C24.009 20.9213 23.5789 21.0069 23.2929 21.2929L17.2929 27.2929C16.9321 27.6537 16.4155 27.9278 15.9242 28.0156C15.4383 28.1023 15.1079 27.9937 14.9071 27.7929L14.3779 27.2636C14.4232 27.1935 14.4715 27.1188 14.5224 27.04C14.8797 26.4878 15.3694 25.733 15.8995 24.9222C16.9655 23.2918 18.177 21.4629 18.8107 20.5855C18.945 20.3995 19.0861 20.1976 19.2351 19.9843C19.8567 19.0945 20.6169 18.0063 21.6093 17.0423C22.8226 15.8636 24.2609 15 26 15H32.8C33.8119 15 35.1217 15.5859 36.2054 16.6696C37.2732 17.7374 38 19.1702 38 20.7V27.8C38 28.4236 37.6014 29.2284 36.8646 29.9218C36.1314 30.6119 35.2644 31 34.6 31V33C35.9356 33 37.2686 32.2881 38.2354 31.3782C39.1986 30.4716 40 29.1764 40 27.8V20.7C40 18.5298 38.9768 16.6126 37.6196 15.2554Z" fill="#505050"/>
<path fill-rule="evenodd" clip-rule="evenodd" d="M36 48L36 21H34L34 48H36Z" fill="#505050"/>
<path fill-rule="evenodd" clip-rule="evenodd" d="M30 48L30 32H28L28 48H30Z" fill="#505050"/>
<path fill-rule="evenodd" clip-rule="evenodd" d="M32.5633 1.38666C31.6459 0.485314 30.3859 0 29 0C27.6141 0 26.3541 0.485314 25.4367 1.38666C24.5165 2.29065 24 3.55539 24 5V7C24 8.44461 24.5165 9.70935 25.4367 10.6133C26.3541 11.5147 27.6141 12 29 12C30.3859 12 31.6459 11.5147 32.5633 10.6133C33.4834 9.70935 34 8.44461 34 7V5C34 3.55539 33.4834 2.29065 32.5633 1.38666ZM31.1617 2.81334C31.6666 3.30935 32 4.04461 32 5V7C32 7.95539 31.6666 8.69065 31.1617 9.18666C30.6541 9.68531 29.9141 10 29 10C28.0859 10 27.3459 9.68531 26.8383 9.18666C26.3334 8.69065 26 7.95539 26 7V5C26 4.04461 26.3334 3.30935 26.8383 2.81334C27.3459 2.31469 28.0859 2 29 2C29.9141 2 30.6541 2.31469 31.1617 2.81334Z" fill="#505050"/>
<path fill-rule="evenodd" clip-rule="evenodd" d="M22 31L1 31C0.447716 31 0 31.4477 0 32L0 47C0 47.5523 0.447716 48 1 48H22V46H2L2 33H22V31Z" fill="#505050"/>
<path fill-rule="evenodd" clip-rule="evenodd" d="M17 32C17 31.4477 16.5523 31 16 31H9C8.44772 31 8 31.4477 8 32L8 36C8 36.5523 8.44772 37 9 37H16C16.5523 37 17 36.5523 17 36V32ZM15 33V35H10V33H15Z" fill="#505050"/>
<path fill-rule="evenodd" clip-rule="evenodd" d="M6 42H4L4 44H6V42Z" fill="#505050"/>
<path fill-rule="evenodd" clip-rule="evenodd" d="M9 42H7V44H9V42Z" fill="#505050"/>
</svg>
