<svg width="35" height="50" viewBox="0 0 35 50" fill="none" xmlns="http://www.w3.org/2000/svg">
<path d="M18.8796 20.5195C18.8796 19.6365 18.1648 18.8796 17.2397 18.8796C16.3567 18.8796 15.5999 19.5945 15.5999 20.5195C15.5999 21.4025 16.3147 22.1594 17.2397 22.1594C18.1648 22.1173 18.8796 21.4025 18.8796 20.5195Z" fill="#354157"/>
<path d="M12.9928 21.1922C12.5303 20.4354 11.5632 20.141 10.7643 20.6036C10.0074 21.0661 9.71306 22.0332 10.1756 22.8321C10.6381 23.589 11.6052 23.8833 12.4041 23.4208C13.161 22.9583 13.4553 21.9912 12.9928 21.1922Z" fill="#354157"/>
<path d="M8.24142 24.7664C7.48455 24.3039 6.4754 24.5982 6.01287 25.3551C5.55034 26.1119 5.84467 27.1211 6.60154 27.5836C7.35841 28.0462 8.36756 27.7518 8.83009 26.995C9.29262 26.196 8.99828 25.2289 8.24142 24.7664Z" fill="#354157"/>
<path d="M5.92888 30.2325C5.04587 30.2325 4.33105 30.9474 4.33105 31.8724C4.33105 32.7554 5.04587 33.5123 5.97093 33.5123C6.85394 33.5123 7.61081 32.7975 7.61081 31.8724C7.52671 30.9474 6.81189 30.2325 5.92888 30.2325Z" fill="#354157"/>
<path d="M6.60154 36.1193C5.84467 36.5818 5.55034 37.5489 6.01287 38.3479C6.4754 39.1047 7.4425 39.3991 8.24142 38.9365C9.04033 38.474 9.29262 37.5069 8.83009 36.708C8.36756 35.9511 7.40045 35.6568 6.60154 36.1193Z" fill="#354157"/>
<path d="M10.1756 40.8708C9.71306 41.6276 10.0074 42.6368 10.7643 43.0993C11.5211 43.5618 12.5303 43.2675 12.9928 42.5106C13.4553 41.7538 13.161 40.7446 12.4041 40.2821C11.6052 39.8196 10.6381 40.0718 10.1756 40.8708Z" fill="#354157"/>
<path d="M15.6418 43.1835C15.6418 44.0665 16.3567 44.7813 17.2817 44.7813C18.1647 44.7813 18.9216 44.0665 18.9216 43.1414C18.9216 42.2584 18.2068 41.5015 17.2817 41.5015C16.3567 41.5856 15.6418 42.3004 15.6418 43.1835Z" fill="#354157"/>
<path d="M21.5286 42.4686C21.9911 43.2255 22.9582 43.5198 23.7572 43.0573C24.514 42.5947 24.8084 41.6276 24.3458 40.8287C23.8833 40.0718 22.9162 39.7775 22.1173 40.24C21.3604 40.7026 21.0661 41.7117 21.5286 42.4686Z" fill="#354157"/>
<path d="M26.28 38.9365C27.0369 39.3991 28.046 39.1047 28.5086 38.3479C28.9711 37.591 28.6767 36.5818 27.9199 36.1193C27.121 35.6568 26.1539 35.9511 25.6913 36.708C25.2288 37.4649 25.4811 38.474 26.28 38.9365Z" fill="#354157"/>
<path d="M28.5927 33.4702C29.4757 33.4702 30.1906 32.7554 30.1906 31.8304C30.1906 30.9474 29.4757 30.1905 28.5507 30.1905C27.6677 30.1905 26.9108 30.9053 26.9528 31.8304C26.9949 32.7554 27.7097 33.4702 28.5927 33.4702Z" fill="#354157"/>
<path d="M27.8779 27.5836C28.6348 27.1211 28.9291 26.154 28.4666 25.3551C28.004 24.5982 27.0369 24.3039 26.238 24.7664C25.4811 25.2289 25.1868 26.196 25.6493 26.995C26.1119 27.7518 27.121 28.0462 27.8779 27.5836Z" fill="#354157"/>
<path d="M24.3458 22.8321C24.8084 22.0752 24.514 21.0661 23.7572 20.6036C23.0003 20.141 21.9911 20.4354 21.5286 21.1922C21.0661 21.9491 21.3604 22.9583 22.1173 23.4208C22.8742 23.8833 23.8833 23.589 24.3458 22.8321Z" fill="#354157"/>
<path fill-rule="evenodd" clip-rule="evenodd" d="M0 31.8725C0 22.3795 7.70114 14.6328 17.2397 14.6328C26.7327 14.6328 34.4795 22.3339 34.4795 31.8725C34.4795 41.3655 26.7783 49.1122 17.2397 49.1122C7.70114 49.1122 0 41.3655 0 31.8725ZM17.2397 16.7352C8.86582 16.7352 2.10241 23.5371 2.10241 31.8725C2.10241 40.2079 8.86582 47.0098 17.2397 47.0098C25.6136 47.0098 32.377 40.2079 32.377 31.8725C32.377 23.4986 25.5751 16.7352 17.2397 16.7352Z" fill="#354157"/>
<path fill-rule="evenodd" clip-rule="evenodd" d="M17.2398 24.3038C17.8204 24.3038 18.291 24.7744 18.291 25.355V31.395L21.2208 34.3248C21.6313 34.7353 21.6313 35.4009 21.2208 35.8114C20.8103 36.2219 20.1447 36.2219 19.7342 35.8114L16.4965 32.5737C16.2993 32.3766 16.1886 32.1092 16.1886 31.8304V25.355C16.1886 24.7744 16.6592 24.3038 17.2398 24.3038Z" fill="#354157"/>
<path fill-rule="evenodd" clip-rule="evenodd" d="M17.2397 2.10241C15.1292 2.10241 13.4133 3.81827 13.4133 5.92878C13.4133 8.0393 15.1292 9.75516 17.2397 9.75516C19.3502 9.75516 21.0661 8.0393 21.0661 5.92878C21.0661 3.81827 19.3502 2.10241 17.2397 2.10241ZM11.3109 5.92878C11.3109 2.65714 13.9681 0 17.2397 0C20.5113 0 23.1685 2.65714 23.1685 5.92878C23.1685 9.20043 20.5113 11.8576 17.2397 11.8576C13.9681 11.8576 11.3109 9.20043 11.3109 5.92878Z" fill="#354157"/>
<path fill-rule="evenodd" clip-rule="evenodd" d="M17.2398 9.71313C17.8204 9.71313 18.291 10.1838 18.291 10.7643V15.6419C18.291 16.2225 17.8204 16.6931 17.2398 16.6931C16.6592 16.6931 16.1886 16.2225 16.1886 15.6419V10.7643C16.1886 10.1838 16.6592 9.71313 17.2398 9.71313Z" fill="#354157"/>
<path fill-rule="evenodd" clip-rule="evenodd" d="M29.1164 11.2825C29.6198 11.5718 29.7934 12.2143 29.5041 12.7177L26.2664 18.3521C25.9772 18.8555 25.3346 19.0291 24.8312 18.7398C24.3279 18.4506 24.1543 17.808 24.4435 17.3047L27.6812 11.6702C27.9705 11.1668 28.613 10.9933 29.1164 11.2825Z" fill="#354157"/>
<path fill-rule="evenodd" clip-rule="evenodd" d="M24.867 10.0252C25.1591 9.52348 25.8026 9.3535 26.3043 9.64556L31.9388 12.9253C32.4405 13.2174 32.6105 13.8609 32.3184 14.3626C32.0264 14.8644 31.3829 15.0344 30.8811 14.7423L25.2467 11.4626C24.7449 11.1705 24.5749 10.527 24.867 10.0252Z" fill="#354157"/>
<path fill-rule="evenodd" clip-rule="evenodd" d="M5.40508 11.2825C5.90846 10.9933 6.55101 11.1668 6.84026 11.6702L10.078 17.3047C10.3672 17.808 10.1936 18.4506 9.69026 18.7398C9.18689 19.0291 8.54434 18.8555 8.25508 18.3521L5.01738 12.7177C4.72813 12.2143 4.90171 11.5718 5.40508 11.2825Z" fill="#354157"/>
<path fill-rule="evenodd" clip-rule="evenodd" d="M9.61072 10.0223C9.90442 10.5231 9.73653 11.1671 9.23574 11.4608L3.64334 14.7406C3.14255 15.0343 2.49848 14.8664 2.20478 14.3656C1.91109 13.8648 2.07897 13.2207 2.57976 12.927L8.17216 9.64729C8.67296 9.35359 9.31702 9.52147 9.61072 10.0223Z" fill="#354157"/>
</svg>
