<svg width="31" height="48" viewBox="0 0 31 48" fill="none" xmlns="http://www.w3.org/2000/svg">
<path fill-rule="evenodd" clip-rule="evenodd" d="M22.2929 24.2929C22.6834 23.9024 23.3166 23.9024 23.7071 24.2929L28.7071 29.2929C29.0976 29.6834 29.0976 30.3166 28.7071 30.7071C28.3166 31.0976 27.6834 31.0976 27.2929 30.7071L22.2929 25.7071C21.9024 25.3166 21.9024 24.6834 22.2929 24.2929Z" fill="#505050"/>
<path fill-rule="evenodd" clip-rule="evenodd" d="M16 20C14.9894 20 14.2239 20.1903 13.7071 20.7071L3.70711 30.7071C3.31658 31.0976 2.68342 31.0976 2.29289 30.7071C1.90237 30.3166 1.90237 29.6834 2.29289 29.2929L12.2929 19.2929C13.3761 18.2097 14.8106 18 16 18C16.5523 18 17 18.4477 17 19C17 19.5523 16.5523 20 16 20Z" fill="#505050"/>
<path fill-rule="evenodd" clip-rule="evenodd" d="M7 1C7 0.447715 7.44772 0 8 0H24C24.5523 0 25 0.447715 25 1V7C25 7.26522 24.8946 7.51957 24.7071 7.70711L21.7071 10.7071C21.5196 10.8946 21.2652 11 21 11H11C10.7348 11 10.4804 10.8946 10.2929 10.7071L7.29289 7.70711C7.10536 7.51957 7 7.26522 7 7V1ZM9 2V6.58579L11.4142 9H20.5858L23 6.58579V2H9Z" fill="#505050"/>
<path fill-rule="evenodd" clip-rule="evenodd" d="M0 30C0 29.4477 0.447715 29 1 29H30C30.5523 29 31 29.4477 31 30V47C31 47.5523 30.5523 48 30 48H1C0.447715 48 0 47.5523 0 47V30ZM2 31V46H29V31H2Z" fill="#505050"/>
<path fill-rule="evenodd" clip-rule="evenodd" d="M11 30C11 29.4477 11.4477 29 12 29H19C19.5523 29 20 29.4477 20 30V34C20 34.5523 19.5523 35 19 35H12C11.4477 35 11 34.5523 11 34V30ZM13 31V33H18V31H13Z" fill="#505050"/>
<path fill-rule="evenodd" clip-rule="evenodd" d="M20 10V12.2C20 13.5175 19.6283 14.4959 18.9469 15.3232C18.3661 16.0285 17.568 16.6031 16.7723 17.176C16.7202 17.2135 16.6681 17.2511 16.616 17.2886C16.2121 17.6347 16 18.0622 16 18.5C16 19.3477 16.6523 20 17.5 20C17.6322 20 17.9666 19.897 18.3553 19.5901C18.7321 19.2927 18.9706 18.9512 19.0422 18.7127C19.0451 18.703 19.0481 18.6934 19.0513 18.6838C19.2773 18.0059 19.8521 17.7033 20.364 17.6428C20.8301 17.5878 21.2911 17.7118 21.654 17.8842C22.024 18.0599 22.4024 18.3379 22.6712 18.7158C22.9481 19.1052 23.1444 19.6655 22.9578 20.2873L22.9536 20.3011C22.3173 22.316 20.2857 26 16 26C14.6755 26 13.5493 25.7767 12.4286 25.3285L13.1714 23.4715C14.0507 23.8233 14.9244 24 16 24C18.8429 24 20.405 21.6058 21.0031 19.8313C20.9606 19.7895 20.8926 19.7375 20.8014 19.6934C20.524 20.2823 20.0632 20.7899 19.5946 21.1599C19.0334 21.603 18.2678 22 17.5 22C15.5477 22 14 20.4523 14 18.5C14 17.3464 14.5794 16.3821 15.3598 15.7318C15.3775 15.717 15.3958 15.7028 15.4145 15.6893C15.445 15.6673 15.4753 15.6454 15.5051 15.6239C16.3983 14.979 16.9931 14.5496 17.403 14.0518C17.7717 13.6041 18 13.0825 18 12.2V10H20Z" fill="#505050"/>
<path fill-rule="evenodd" clip-rule="evenodd" d="M12 12V10H14V12C14 12.8563 13.5123 13.4761 13.0879 13.9075C12.8691 14.13 12.6216 14.3466 12.3907 14.5474C12.3729 14.5629 12.3552 14.5783 12.3375 14.5937C12.1167 14.7857 11.9024 14.9721 11.6887 15.175C10.8099 16.0099 10 17.0653 10 19C10 20.1382 10.3984 21.1034 11.1433 21.931L9.65671 23.269C8.60161 22.0966 8 20.6618 8 19C8 16.3347 9.19007 14.7901 10.3113 13.725C10.5584 13.4902 10.8049 13.2759 11.0209 13.0882C11.0402 13.0714 11.0592 13.0549 11.078 13.0385C11.3159 12.8315 11.5059 12.6638 11.6621 12.505C11.9877 12.1739 12 12.0437 12 12Z" fill="#505050"/>
</svg>
