<svg width="62" height="61" viewBox="0 0 62 61" fill="none" xmlns="http://www.w3.org/2000/svg">
<path fill-rule="evenodd" clip-rule="evenodd" d="M30.616 0.438216C30.9665 0.270595 31.374 0.270595 31.7245 0.438216L61.2697 14.5685C61.716 14.782 62 15.2327 62 15.7274V45.2726C62 45.7673 61.716 46.218 61.2697 46.4315L31.7245 60.5618C31.374 60.7294 30.9665 60.7294 30.616 60.5618L1.07079 46.4315C0.624516 46.218 0.340454 45.7673 0.340454 45.2726V15.7274C0.340454 15.2327 0.624516 14.782 1.07079 14.5685L30.616 0.438216ZM2.9096 16.537V44.463L31.1702 57.979L59.4309 44.463V16.537L31.1702 3.021L2.9096 16.537Z" fill="#505050"/>
<path fill-rule="evenodd" clip-rule="evenodd" d="M42.001 7.89419L12.4558 22.0245L11.3474 19.7068L40.8926 5.57648L42.001 7.89419Z" fill="#505050"/>
<path fill-rule="evenodd" clip-rule="evenodd" d="M56.7435 39.596C57.0408 40.2402 56.7596 41.0034 56.1154 41.3007L39.416 49.0081C38.7718 49.3054 38.0086 49.0242 37.7113 48.3801C37.414 47.7359 37.6952 46.9727 38.3393 46.6754L55.0388 38.968C55.683 38.6707 56.4462 38.9518 56.7435 39.596Z" fill="#505050"/>
<path fill-rule="evenodd" clip-rule="evenodd" d="M29.8857 59.4029V29.8577H32.4548V59.4029H29.8857Z" fill="#505050"/>
<path fill-rule="evenodd" clip-rule="evenodd" d="M53.008 26.004C53.7174 26.004 54.2925 26.5792 54.2925 27.2886V36.2806C54.2925 36.9901 53.7174 37.5652 53.008 37.5652C52.2985 37.5652 51.7234 36.9901 51.7234 36.2806V27.2886C51.7234 26.5792 52.2985 26.004 53.008 26.004Z" fill="#505050"/>
<path fill-rule="evenodd" clip-rule="evenodd" d="M52.7365 26.0331C53.0802 25.9587 53.4395 26.0286 53.7304 26.2264L56.9418 28.4101C57.5285 28.8091 57.6807 29.6081 57.2817 30.1947C56.8828 30.7814 56.0838 30.9336 55.4971 30.5346L53.402 29.1099L50.8934 33.2241C50.524 33.8299 49.7336 34.0215 49.1278 33.6521C48.5221 33.2828 48.3305 32.4923 48.6998 31.8866L51.9113 26.6198C52.0944 26.3195 52.3927 26.1074 52.7365 26.0331Z" fill="#505050"/>
<path fill-rule="evenodd" clip-rule="evenodd" d="M42.7314 31.1423C43.4409 31.1423 44.016 31.7175 44.016 32.4269V41.4189C44.016 42.1284 43.4409 42.7035 42.7314 42.7035C42.022 42.7035 41.4468 42.1284 41.4468 41.4189V32.4269C41.4468 31.7175 42.022 31.1423 42.7314 31.1423Z" fill="#505050"/>
<path fill-rule="evenodd" clip-rule="evenodd" d="M42.4598 31.1714C42.8036 31.097 43.1629 31.1669 43.4538 31.3647L46.6652 33.5484C47.2519 33.9474 47.404 34.7464 47.0051 35.333C46.6062 35.9197 45.8072 36.0719 45.2205 35.6729L43.1254 34.2483L40.6168 38.3624C40.2474 38.9682 39.457 39.1598 38.8512 38.7904C38.2455 38.4211 38.0539 37.6306 38.4232 37.0249L41.6347 31.7582C41.8178 31.4578 42.116 31.2457 42.4598 31.1714Z" fill="#505050"/>
<path fill-rule="evenodd" clip-rule="evenodd" d="M20.8937 25.5289L49.7085 11.7479L48.6001 9.43018L19.0549 23.5605C18.6086 23.7739 18.3245 24.2247 18.3245 24.7194V30.3483L13.1862 27.7792V20.8656H10.6171V28.5731C10.6171 29.0596 10.892 29.5044 11.3272 29.722L19.0346 33.5758C19.4328 33.7749 19.9057 33.7536 20.2844 33.5195C20.6631 33.2855 20.8937 32.872 20.8937 32.4268V25.5289Z" fill="#505050"/>
<path fill-rule="evenodd" clip-rule="evenodd" d="M61.2698 16.8863L31.7245 31.0166C31.3726 31.1849 30.9632 31.1842 30.6118 31.0145L19.436 25.6193L20.553 23.3057L31.1729 28.4325L60.1613 14.5685L61.2698 16.8863Z" fill="#505050"/>
<path fill-rule="evenodd" clip-rule="evenodd" d="M11.6068 21.8973L1.0733 16.8874L2.17677 14.5673L12.7103 19.5772L11.6068 21.8973Z" fill="#505050"/>
</svg>
