<svg width="36" height="35" viewBox="0 0 36 35" fill="none" xmlns="http://www.w3.org/2000/svg">
<path fill-rule="evenodd" clip-rule="evenodd" d="M8.55165 14.5007C9.13893 14.1664 9.86108 14.1664 10.4484 14.5007L17.7937 18.6815C18.3821 19.0164 18.75 19.6393 18.75 20.3192V28.6808C18.75 29.3607 18.3821 29.9836 17.7937 30.3185L10.4484 34.4993C9.86107 34.8336 9.13892 34.8336 8.55165 34.4993L1.20635 30.3185C0.617925 29.9836 0.25 29.3607 0.25 28.6808V20.3192C0.25 19.6393 0.617925 19.0164 1.20635 18.6815L8.55165 14.5007ZM9.70635 15.8043C9.57909 15.7319 9.42091 15.7319 9.29365 15.8043L2.47827 19.6835L9.29522 23.5238C9.42169 23.5951 9.57831 23.5951 9.70478 23.5238L16.5217 19.6835L9.70635 15.8043ZM17.25 20.9949L10.441 24.8307C10.3787 24.8658 10.315 24.8971 10.25 24.9247V32.8862L17.0517 29.0149C17.1778 28.9431 17.25 28.8143 17.25 28.6808V20.9949ZM8.75 32.8862V24.9247C8.68505 24.8971 8.62127 24.8658 8.55899 24.8307L1.75 20.9949V28.6808C1.75 28.8143 1.82224 28.9431 1.94835 29.0149L8.75 32.8862Z" fill="#E76060"/>
<path fill-rule="evenodd" clip-rule="evenodd" d="M25.5517 14.5007C26.1389 14.1664 26.8611 14.1664 27.4484 14.5007L34.7937 18.6815C35.3821 19.0164 35.75 19.6393 35.75 20.3192V28.6808C35.75 29.3607 35.3821 29.9836 34.7937 30.3185L27.4484 34.4993C26.8611 34.8336 26.1389 34.8336 25.5517 34.4993L18.2064 30.3185L18.5688 29.6817L18.2064 30.3185C17.6179 29.9836 17.25 29.3607 17.25 28.6808V20.3192C17.25 19.6393 17.6179 19.0164 18.2064 18.6815L25.5517 14.5007ZM26.7064 15.8043C26.5791 15.7319 26.4209 15.7319 26.2937 15.8043L19.4783 19.6835L26.2952 23.5238C26.4217 23.5951 26.5783 23.5951 26.7048 23.5238L33.5217 19.6835L26.7064 15.8043ZM34.25 20.9949L27.441 24.8307C27.3787 24.8658 27.315 24.8971 27.25 24.9247V32.8862L34.0517 29.0149C34.1778 28.9431 34.25 28.8143 34.25 28.6808V20.9949ZM25.75 32.8862V24.9247C25.685 24.8971 25.6213 24.8658 25.559 24.8307L18.75 20.9949V28.6808C18.75 28.8143 18.8222 28.9431 18.9484 29.0149L25.75 32.8862Z" fill="#E76060"/>
<path fill-rule="evenodd" clip-rule="evenodd" d="M24.7521 5.35885L18 1.53812L11.2479 5.35885L17.7599 9.00591C17.9081 9.08891 18.0919 9.08891 18.2401 9.00591L24.7521 5.35885ZM10.5 6.65923V14.218L17.25 18.0375V10.4219C17.174 10.391 17.0995 10.3553 17.0269 10.3146L10.5 6.65923ZM18.75 10.4219C18.826 10.391 18.9005 10.3553 18.9731 10.3146L25.5 6.65923V14.218L18.75 18.0375V10.4219ZM9.61131 4.5614L17.3887 0.160539C17.767 -0.053513 18.233 -0.053513 18.6113 0.160539L26.3887 4.5614C26.767 4.77545 27 5.17104 27 5.59914V14.4009C27 14.829 26.767 15.2245 26.3887 15.4386L18.6113 19.8395C18.233 20.0535 17.767 20.0535 17.3887 19.8395L9.61131 15.4386C9.23303 15.2245 9 14.829 9 14.4009V5.59914C9 5.17104 9.23303 4.77545 9.61131 4.5614Z" fill="#E76060"/>
</svg>
