<svg width="27" height="40" viewBox="0 0 27 40" fill="none" xmlns="http://www.w3.org/2000/svg">
<path d="M1 36.5329V3.46706C1 2.46805 2.30807 2.09291 2.83754 2.94006C3.17644 3.48231 3.93168 3.56832 4.38384 3.11616L4.79289 2.70711C5.18342 2.31658 5.81658 2.31658 6.20711 2.70711L6.79289 3.29289C7.18342 3.68342 7.81658 3.68342 8.20711 3.29289L8.79289 2.70711C9.18342 2.31658 9.81658 2.31658 10.2071 2.70711L10.7929 3.29289C11.1834 3.68342 11.8166 3.68342 12.2071 3.29289L12.7929 2.70711C13.1834 2.31658 13.8166 2.31658 14.2071 2.70711L14.7929 3.29289C15.1834 3.68342 15.8166 3.68342 16.2071 3.29289L16.7929 2.70711C17.1834 2.31658 17.8166 2.31658 18.2071 2.70711L18.7929 3.29289C19.1834 3.68342 19.8166 3.68342 20.2071 3.29289L20.7929 2.70711C21.1834 2.31658 21.8166 2.31658 22.2071 2.70711L22.7198 3.2198C23.1036 3.60363 23.7507 3.49863 23.9934 3.01312C24.3687 2.26254 25.5 2.5296 25.5 3.36877V36.6312C25.5 37.4704 24.3687 37.7375 23.9934 36.9869C23.7507 36.5014 23.1036 36.3964 22.7198 36.7802L22.2071 37.2929C21.8166 37.6834 21.1834 37.6834 20.7929 37.2929L20.2071 36.7071C19.8166 36.3166 19.1834 36.3166 18.7929 36.7071L18.2071 37.2929C17.8166 37.6834 17.1834 37.6834 16.7929 37.2929L16.2071 36.7071C15.8166 36.3166 15.1834 36.3166 14.7929 36.7071L14.2071 37.2929C13.8166 37.6834 13.1834 37.6834 12.7929 37.2929L12.2071 36.7071C11.8166 36.3166 11.1834 36.3166 10.7929 36.7071L10.2071 37.2929C9.81658 37.6834 9.18342 37.6834 8.79289 37.2929L8.20711 36.7071C7.81658 36.3166 7.18342 36.3166 6.79289 36.7071L6.20711 37.2929C5.81658 37.6834 5.18342 37.6834 4.79289 37.2929L4.38384 36.8838C3.93168 36.4317 3.17644 36.5177 2.83754 37.0599C2.30807 37.9071 1 37.5319 1 36.5329Z" fill="none" stroke="#E76060" stroke-width="1.5"/>
<path fill-rule="evenodd" clip-rule="evenodd" d="M18.1414 20.75C18.0033 20.75 17.8914 20.8619 17.8914 21V22.7283H20.5065C20.8127 22.7283 20.9695 22.6166 21.0673 22.4857C21.1843 22.3291 21.2619 22.0766 21.2485 21.7721C21.2352 21.4689 21.1341 21.1896 20.9897 21.0036C20.8564 20.832 20.7 20.75 20.5065 20.75H18.1414ZM17.8914 24.2283H20.5065C21.2709 24.2283 21.879 23.9052 22.2687 23.3839C22.6392 22.8883 22.7719 22.2712 22.7471 21.7062C22.7222 21.1398 22.5364 20.5496 22.1742 20.0833C21.8009 19.6028 21.2307 19.25 20.5065 19.25H18.1414C17.1748 19.25 16.3914 20.0335 16.3914 21V22.7283H15C14.5858 22.7283 14.25 23.064 14.25 23.4783C14.25 23.8925 14.5858 24.2283 15 24.2283H16.3914V25.0278H15C14.5858 25.0278 14.25 25.3636 14.25 25.7778C14.25 26.192 14.5858 26.5278 15 26.5278H16.3914V28C16.3914 28.4142 16.7272 28.75 17.1414 28.75C17.5556 28.75 17.8914 28.4142 17.8914 28V26.5278H20.5C20.9142 26.5278 21.25 26.192 21.25 25.7778C21.25 25.3636 20.9142 25.0278 20.5 25.0278H17.8914V24.2283Z" fill="#E76060"/>
<path fill-rule="evenodd" clip-rule="evenodd" d="M5.25 9C5.25 8.58579 5.58579 8.25 6 8.25H20C20.4142 8.25 20.75 8.58579 20.75 9C20.75 9.41421 20.4142 9.75 20 9.75H6C5.58579 9.75 5.25 9.41421 5.25 9Z" fill="#E76060"/>
<path fill-rule="evenodd" clip-rule="evenodd" d="M9.25 12C9.25 11.5858 9.58579 11.25 10 11.25H16C16.4142 11.25 16.75 11.5858 16.75 12C16.75 12.4142 16.4142 12.75 16 12.75H10C9.58579 12.75 9.25 12.4142 9.25 12Z" fill="#E76060"/>
<path fill-rule="evenodd" clip-rule="evenodd" d="M6.75 20C6.75 19.5858 6.41421 19.25 6 19.25H5C4.58579 19.25 4.25 19.5858 4.25 20C4.25 20.4142 4.58579 20.75 5 20.75H6C6.41421 20.75 6.75 20.4142 6.75 20Z" fill="#E76060"/>
<path fill-rule="evenodd" clip-rule="evenodd" d="M7.25 20C7.25 19.5858 7.58579 19.25 8 19.25H12C12.4142 19.25 12.75 19.5858 12.75 20C12.75 20.4142 12.4142 20.75 12 20.75H8C7.58579 20.75 7.25 20.4142 7.25 20Z" fill="#E76060"/>
<path fill-rule="evenodd" clip-rule="evenodd" d="M6.75 24C6.75 23.5858 6.41421 23.25 6 23.25H5C4.58579 23.25 4.25 23.5858 4.25 24C4.25 24.4142 4.58579 24.75 5 24.75H6C6.41421 24.75 6.75 24.4142 6.75 24Z" fill="#E76060"/>
<path fill-rule="evenodd" clip-rule="evenodd" d="M7.25 24C7.25 23.5858 7.58579 23.25 8 23.25H12C12.4142 23.25 12.75 23.5858 12.75 24C12.75 24.4142 12.4142 24.75 12 24.75H8C7.58579 24.75 7.25 24.4142 7.25 24Z" fill="#E76060"/>
<path fill-rule="evenodd" clip-rule="evenodd" d="M6.75 28C6.75 27.5858 6.41421 27.25 6 27.25H5C4.58579 27.25 4.25 27.5858 4.25 28C4.25 28.4142 4.58579 28.75 5 28.75H6C6.41421 28.75 6.75 28.4142 6.75 28Z" fill="#E76060"/>
<path fill-rule="evenodd" clip-rule="evenodd" d="M7.25 28C7.25 27.5858 7.58579 27.25 8 27.25H12C12.4142 27.25 12.75 27.5858 12.75 28C12.75 28.4142 12.4142 28.75 12 28.75H8C7.58579 28.75 7.25 28.4142 7.25 28Z" fill="#E76060"/>
</svg>
