<svg width="29" height="35" viewBox="0 0 29 35" fill="none" xmlns="http://www.w3.org/2000/svg">
<path fill-rule="evenodd" clip-rule="evenodd" d="M0.25 3C0.25 1.48122 1.48122 0.25 3 0.25H21C22.5188 0.25 23.75 1.48122 23.75 3V27C23.75 28.5188 22.5188 29.75 21 29.75H3C1.48122 29.75 0.25 28.5188 0.25 27V3ZM3 1.75C2.30964 1.75 1.75 2.30964 1.75 3V27C1.75 27.6904 2.30964 28.25 3 28.25H21C21.6904 28.25 22.25 27.6904 22.25 27V3C22.25 2.30964 21.6904 1.75 21 1.75H3Z" fill="#E76060"/>
<path fill-rule="evenodd" clip-rule="evenodd" d="M26 6.75H23V5.25H26C27.5188 5.25 28.75 6.48122 28.75 8V32C28.75 33.5188 27.5188 34.75 26 34.75H8C6.48122 34.75 5.25 33.5188 5.25 32V29H6.75V32C6.75 32.6904 7.30964 33.25 8 33.25H26C26.6904 33.25 27.25 32.6904 27.25 32V8C27.25 7.30964 26.6904 6.75 26 6.75Z" fill="#E76060"/>
<path fill-rule="evenodd" clip-rule="evenodd" d="M4.25 6C4.25 5.58579 4.58579 5.25 5 5.25H14C14.4142 5.25 14.75 5.58579 14.75 6C14.75 6.41421 14.4142 6.75 14 6.75H5C4.58579 6.75 4.25 6.41421 4.25 6Z" fill="#E76060"/>
<path fill-rule="evenodd" clip-rule="evenodd" d="M4.25 15C4.25 14.5858 4.58579 14.25 5 14.25H14C14.4142 14.25 14.75 14.5858 14.75 15C14.75 15.4142 14.4142 15.75 14 15.75H5C4.58579 15.75 4.25 15.4142 4.25 15Z" fill="#E76060"/>
<path fill-rule="evenodd" clip-rule="evenodd" d="M16.25 6C16.25 5.58579 16.5858 5.25 17 5.25H19C19.4142 5.25 19.75 5.58579 19.75 6C19.75 6.41421 19.4142 6.75 19 6.75H17C16.5858 6.75 16.25 6.41421 16.25 6Z" fill="#E76060"/>
<path fill-rule="evenodd" clip-rule="evenodd" d="M16.25 15C16.25 14.5858 16.5858 14.25 17 14.25H19C19.4142 14.25 19.75 14.5858 19.75 15C19.75 15.4142 19.4142 15.75 19 15.75H17C16.5858 15.75 16.25 15.4142 16.25 15Z" fill="#E76060"/>
<path fill-rule="evenodd" clip-rule="evenodd" d="M4.25 9C4.25 8.58579 4.58579 8.25 5 8.25H14C14.4142 8.25 14.75 8.58579 14.75 9C14.75 9.41421 14.4142 9.75 14 9.75H5C4.58579 9.75 4.25 9.41421 4.25 9Z" fill="#E76060"/>
<path fill-rule="evenodd" clip-rule="evenodd" d="M16.25 9C16.25 8.58579 16.5858 8.25 17 8.25H19C19.4142 8.25 19.75 8.58579 19.75 9C19.75 9.41421 19.4142 9.75 19 9.75H17C16.5858 9.75 16.25 9.41421 16.25 9Z" fill="#E76060"/>
<path fill-rule="evenodd" clip-rule="evenodd" d="M4.25 12C4.25 11.5858 4.58579 11.25 5 11.25H14C14.4142 11.25 14.75 11.5858 14.75 12C14.75 12.4142 14.4142 12.75 14 12.75H5C4.58579 12.75 4.25 12.4142 4.25 12Z" fill="#E76060"/>
<path fill-rule="evenodd" clip-rule="evenodd" d="M16.25 12C16.25 11.5858 16.5858 11.25 17 11.25H19C19.4142 11.25 19.75 11.5858 19.75 12C19.75 12.4142 19.4142 12.75 19 12.75H17C16.5858 12.75 16.25 12.4142 16.25 12Z" fill="#E76060"/>
<path fill-rule="evenodd" clip-rule="evenodd" d="M17 23.5C17.8284 23.5 18.5 22.8284 18.5 22C18.5 21.1716 17.8284 20.5 17 20.5C16.1716 20.5 15.5 21.1716 15.5 22C15.5 22.8284 16.1716 23.5 17 23.5ZM17 25C18.6569 25 20 23.6569 20 22C20 20.3431 18.6569 19 17 19C15.3431 19 14 20.3431 14 22C14 23.6569 15.3431 25 17 25Z" fill="#E76060"/>
</svg>
