<svg width="27" height="34" viewBox="0 0 27 34" fill="none" xmlns="http://www.w3.org/2000/svg">
<path fill-rule="evenodd" clip-rule="evenodd" d="M0.25 3C0.25 1.48122 1.48122 0.25 3 0.25H24C25.5188 0.25 26.75 1.48122 26.75 3V31C26.75 32.5188 25.5188 33.75 24 33.75H3C1.48122 33.75 0.25 32.5188 0.25 31V3ZM3 1.75C2.30964 1.75 1.75 2.30964 1.75 3V31C1.75 31.6904 2.30964 32.25 3 32.25H24C24.6904 32.25 25.25 31.6904 25.25 31V3C25.25 2.30964 24.6904 1.75 24 1.75H3Z" fill="#E76060"/>
<path fill-rule="evenodd" clip-rule="evenodd" d="M3.25 7C3.25 5.48122 4.48122 4.25 6 4.25H21C22.5188 4.25 23.75 5.48122 23.75 7V10C23.75 11.5188 22.5188 12.75 21 12.75H6C4.48122 12.75 3.25 11.5188 3.25 10V7ZM6 5.75C5.30964 5.75 4.75 6.30964 4.75 7V10C4.75 10.6904 5.30964 11.25 6 11.25H21C21.6904 11.25 22.25 10.6904 22.25 10V7C22.25 6.30964 21.6904 5.75 21 5.75H6Z" fill="#E76060"/>
<path fill-rule="evenodd" clip-rule="evenodd" d="M5.25 17.5C5.25 16.2574 6.25736 15.25 7.5 15.25C8.74264 15.25 9.75 16.2574 9.75 17.5C9.75 18.7426 8.74264 19.75 7.5 19.75C6.25736 19.75 5.25 18.7426 5.25 17.5ZM7.5 16.75C7.08579 16.75 6.75 17.0858 6.75 17.5C6.75 17.9142 7.08579 18.25 7.5 18.25C7.91421 18.25 8.25 17.9142 8.25 17.5C8.25 17.0858 7.91421 16.75 7.5 16.75Z" fill="#E76060"/>
<path fill-rule="evenodd" clip-rule="evenodd" d="M5.25 22.5C5.25 21.2574 6.25736 20.25 7.5 20.25C8.74264 20.25 9.75 21.2574 9.75 22.5C9.75 23.7426 8.74264 24.75 7.5 24.75C6.25736 24.75 5.25 23.7426 5.25 22.5ZM7.5 21.75C7.08579 21.75 6.75 22.0858 6.75 22.5C6.75 22.9142 7.08579 23.25 7.5 23.25C7.91421 23.25 8.25 22.9142 8.25 22.5C8.25 22.0858 7.91421 21.75 7.5 21.75Z" fill="#E76060"/>
<path fill-rule="evenodd" clip-rule="evenodd" d="M5.25 27.5C5.25 26.2574 6.25736 25.25 7.5 25.25C8.74264 25.25 9.75 26.2574 9.75 27.5C9.75 28.7426 8.74264 29.75 7.5 29.75C6.25736 29.75 5.25 28.7426 5.25 27.5ZM7.5 26.75C7.08579 26.75 6.75 27.0858 6.75 27.5C6.75 27.9142 7.08579 28.25 7.5 28.25C7.91421 28.25 8.25 27.9142 8.25 27.5C8.25 27.0858 7.91421 26.75 7.5 26.75Z" fill="#E76060"/>
<path fill-rule="evenodd" clip-rule="evenodd" d="M11.25 17.5C11.25 16.2574 12.2574 15.25 13.5 15.25C14.7426 15.25 15.75 16.2574 15.75 17.5C15.75 18.7426 14.7426 19.75 13.5 19.75C12.2574 19.75 11.25 18.7426 11.25 17.5ZM13.5 16.75C13.0858 16.75 12.75 17.0858 12.75 17.5C12.75 17.9142 13.0858 18.25 13.5 18.25C13.9142 18.25 14.25 17.9142 14.25 17.5C14.25 17.0858 13.9142 16.75 13.5 16.75Z" fill="#E76060"/>
<path fill-rule="evenodd" clip-rule="evenodd" d="M11.25 22.5C11.25 21.2574 12.2574 20.25 13.5 20.25C14.7426 20.25 15.75 21.2574 15.75 22.5C15.75 23.7426 14.7426 24.75 13.5 24.75C12.2574 24.75 11.25 23.7426 11.25 22.5ZM13.5 21.75C13.0858 21.75 12.75 22.0858 12.75 22.5C12.75 22.9142 13.0858 23.25 13.5 23.25C13.9142 23.25 14.25 22.9142 14.25 22.5C14.25 22.0858 13.9142 21.75 13.5 21.75Z" fill="#E76060"/>
<path fill-rule="evenodd" clip-rule="evenodd" d="M11.25 27.5C11.25 26.2574 12.2574 25.25 13.5 25.25C14.7426 25.25 15.75 26.2574 15.75 27.5C15.75 28.7426 14.7426 29.75 13.5 29.75C12.2574 29.75 11.25 28.7426 11.25 27.5ZM13.5 26.75C13.0858 26.75 12.75 27.0858 12.75 27.5C12.75 27.9142 13.0858 28.25 13.5 28.25C13.9142 28.25 14.25 27.9142 14.25 27.5C14.25 27.0858 13.9142 26.75 13.5 26.75Z" fill="#E76060"/>
<path fill-rule="evenodd" clip-rule="evenodd" d="M17.25 17.5C17.25 16.2574 18.2574 15.25 19.5 15.25C20.7426 15.25 21.75 16.2574 21.75 17.5C21.75 18.7426 20.7426 19.75 19.5 19.75C18.2574 19.75 17.25 18.7426 17.25 17.5ZM19.5 16.75C19.0858 16.75 18.75 17.0858 18.75 17.5C18.75 17.9142 19.0858 18.25 19.5 18.25C19.9142 18.25 20.25 17.9142 20.25 17.5C20.25 17.0858 19.9142 16.75 19.5 16.75Z" fill="#E76060"/>
<path fill-rule="evenodd" clip-rule="evenodd" d="M17.25 22.5C17.25 21.2574 18.2574 20.25 19.5 20.25C20.7426 20.25 21.75 21.2574 21.75 22.5C21.75 23.7426 20.7426 24.75 19.5 24.75C18.2574 24.75 17.25 23.7426 17.25 22.5ZM19.5 21.75C19.0858 21.75 18.75 22.0858 18.75 22.5C18.75 22.9142 19.0858 23.25 19.5 23.25C19.9142 23.25 20.25 22.9142 20.25 22.5C20.25 22.0858 19.9142 21.75 19.5 21.75Z" fill="#E76060"/>
<path fill-rule="evenodd" clip-rule="evenodd" d="M17.25 27.5C17.25 26.2574 18.2574 25.25 19.5 25.25C20.7426 25.25 21.75 26.2574 21.75 27.5C21.75 28.7426 20.7426 29.75 19.5 29.75C18.2574 29.75 17.25 28.7426 17.25 27.5ZM19.5 26.75C19.0858 26.75 18.75 27.0858 18.75 27.5C18.75 27.9142 19.0858 28.25 19.5 28.25C19.9142 28.25 20.25 27.9142 20.25 27.5C20.25 27.0858 19.9142 26.75 19.5 26.75Z" fill="#E76060"/>
</svg>
