<svg width="19" height="20" viewBox="0 0 19 20" fill="none" xmlns="http://www.w3.org/2000/svg">
<path fill-rule="evenodd" clip-rule="evenodd" d="M2.1175 4.06748C1.89265 5.74786 2.13641 8.22023 3.45806 11.0362C4.77222 13.8362 6.72008 15.8146 8.4792 16.9881C9.36054 17.576 10.1756 17.9492 10.8195 18.1284C11.1419 18.2181 11.4018 18.2537 11.5942 18.2531C11.6149 18.253 11.6343 18.2525 11.6526 18.2517L12.3408 15.6836C12.4849 15.1456 12.2558 14.5772 11.7789 14.2896L10.3521 13.4292C10.0281 13.2338 9.63294 13.1957 9.27751 13.3256L7.97665 13.801C7.71563 13.8964 7.42326 13.8397 7.21689 13.6536C6.18641 12.7242 5.51454 11.9145 5.03915 11.0183C4.56804 10.1303 4.31397 9.20063 4.06231 8.08807C3.99927 7.80939 4.10005 7.5191 4.3222 7.33944L5.2839 6.56167C5.59272 6.31192 5.76447 5.93027 5.7466 5.53349L5.66098 3.63266C5.63646 3.08829 5.26212 2.62254 4.73577 2.4815L2.93223 1.99824C2.89428 2.01747 2.8103 2.08049 2.68589 2.26923C2.45794 2.61503 2.23104 3.21901 2.1175 4.06748ZM2.95531 1.99096C2.95537 1.99182 2.95062 1.99377 2.94089 1.99425C2.95039 1.99034 2.95525 1.9901 2.95531 1.99096ZM1.43351 1.44367C1.79858 0.889852 2.44724 0.315377 3.28179 0.538995L5.124 1.03261C6.28197 1.34289 7.10551 2.36755 7.15946 3.56516L7.24508 5.466C7.2844 6.33889 6.90655 7.17853 6.22715 7.72799L5.63107 8.21006C5.83868 9.06749 6.04551 9.71459 6.36424 10.3154C6.68756 10.9249 7.14458 11.5202 7.89261 12.2347L8.7626 11.9168C9.54453 11.631 10.4138 11.7148 11.1268 12.1447L12.5535 13.0051C13.6027 13.6378 14.1068 14.8883 13.7897 16.0718L12.9944 19.0397C12.9456 19.2219 12.8298 19.3791 12.6703 19.4798C12.3432 19.6862 11.958 19.7518 11.5994 19.7531C11.2324 19.7543 10.8313 19.6887 10.4173 19.5735C9.58835 19.3428 8.62929 18.8913 7.6468 18.2359C5.67826 16.9228 3.53948 14.7401 2.10018 11.6735C0.668344 8.62277 0.364102 5.86128 0.630754 3.86854C0.762972 2.88045 1.0417 2.03805 1.43351 1.44367ZM15.068 5.03126C15.3609 4.73836 15.8358 4.73836 16.1287 5.03126L18.4897 7.39226C18.7826 7.68516 18.7826 8.16003 18.4897 8.45292L16.1621 10.7805C15.8692 11.0734 15.3943 11.0734 15.1014 10.7805C14.8085 10.4876 14.8085 10.0128 15.1014 9.71988L16.1487 8.67259L10.7404 8.67259C10.3262 8.67259 9.99044 8.33681 9.99044 7.92259C9.99044 7.50838 10.3262 7.17259 10.7404 7.17259L16.1487 7.17259L15.068 6.09192C14.7751 5.79902 14.7751 5.32415 15.068 5.03126Z" fill="#E76060"/>
</svg>
